<svg width="22" height="22" viewBox="0 0 22 22" fill="none" xmlns="http://www.w3.org/2000/svg">
<path fill-rule="evenodd" clip-rule="evenodd" d="M9.84614 1C9.84614 1 11.6454 1 13.2897 1.69549C13.2897 1.69549 14.8773 2.36701 16.1013 3.59097C16.1013 3.59097 17.3253 4.81494 17.9968 6.40259C17.9968 6.40259 18.6923 8.04691 18.6923 9.84614C18.6923 9.84614 18.6923 11.6454 17.9968 13.2897C17.9968 13.2897 17.3253 14.8773 16.1013 16.1013C16.1013 16.1013 14.8773 17.3253 13.2897 17.9968C13.2897 17.9968 11.6454 18.6923 9.84614 18.6923C9.84614 18.6923 8.04691 18.6923 6.40258 17.9968C6.40258 17.9968 4.81494 17.3253 3.59097 16.1013C3.59097 16.1013 2.36701 14.8773 1.69549 13.2897C1.69549 13.2897 1 11.6454 1 9.84614C1 9.84614 1 8.04691 1.69549 6.40259C1.69549 6.40259 2.36701 4.81494 3.59097 3.59097C3.59097 3.59097 4.81494 2.36701 6.40258 1.69549C6.40258 1.69549 8.04691 1 9.84614 1ZM9.84614 2.53846C9.84614 2.53846 8.35888 2.53846 7.00189 3.11242C7.00189 3.11242 5.69061 3.66704 4.67883 4.67883C4.67883 4.67883 3.66704 5.69062 3.11242 7.00189C3.11242 7.00189 2.53846 8.35888 2.53846 9.84614C2.53846 9.84614 2.53846 11.3334 3.11242 12.6904C3.11242 12.6904 3.66704 14.0017 4.67883 15.0134C4.67883 15.0134 5.69062 16.0252 7.00189 16.5799C7.00189 16.5799 8.35889 17.1538 9.84614 17.1538C9.84614 17.1538 11.3334 17.1538 12.6904 16.5799C12.6904 16.5799 14.0017 16.0252 15.0134 15.0134C15.0134 15.0134 16.0252 14.0017 16.5799 12.6904C16.5799 12.6904 17.1538 11.3334 17.1538 9.84614C17.1538 9.84614 17.1538 8.35889 16.5799 7.0019C16.5799 7.0019 16.0252 5.69062 15.0134 4.67883C15.0134 4.67883 14.0017 3.66704 12.6904 3.11242C12.6904 3.11242 11.3334 2.53846 9.84614 2.53846Z" fill="#151515"/>
<path d="M19.6864 20.7743C19.8307 20.9186 20.0268 21 20.2308 21C20.4348 21 20.6304 20.919 20.7747 20.7747C20.919 20.6304 21 20.4348 21 20.2308C21 20.0268 20.919 19.8311 20.7747 19.6868L16.1017 15.0139C15.9574 14.8695 15.7617 14.7885 15.5577 14.7885C15.3537 14.7885 15.1577 14.8692 15.0134 15.0134C14.8692 15.1577 14.7885 15.3537 14.7885 15.5577C14.7885 15.7617 14.8695 15.9574 15.0138 16.1016L19.6864 20.7743Z" fill="#151515"/>
<path d="M15.0134 15.0134C14.0017 16.0252 12.6904 16.5799 12.6904 16.5799C11.3334 17.1538 9.84614 17.1538 9.84614 17.1538C8.35889 17.1538 7.00189 16.5799 7.00189 16.5799C5.69062 16.0252 4.67883 15.0134 4.67883 15.0134C3.66704 14.0017 3.11242 12.6904 3.11242 12.6904C2.53846 11.3334 2.53846 9.84614 2.53846 9.84614C2.53846 8.35888 3.11242 7.00189 3.11242 7.00189C3.66704 5.69062 4.67883 4.67883 4.67883 4.67883C5.69061 3.66704 7.00189 3.11242 7.00189 3.11242C8.35888 2.53846 9.84614 2.53846 9.84614 2.53846C11.3334 2.53846 12.6904 3.11242 12.6904 3.11242C14.0017 3.66704 15.0134 4.67883 15.0134 4.67883C16.0252 5.69062 16.5799 7.0019 16.5799 7.0019C17.1538 8.35889 17.1538 9.84614 17.1538 9.84614C17.1538 11.3334 16.5799 12.6904 16.5799 12.6904C16.0252 14.0017 15.0134 15.0134 15.0134 15.0134ZM15.0134 15.0134C15.1577 14.8692 15.3537 14.7885 15.5577 14.7885C15.7617 14.7885 15.9574 14.8695 16.1017 15.0139L20.7747 19.6868C20.919 19.8311 21 20.0268 21 20.2308C21 20.4348 20.919 20.6304 20.7747 20.7747C20.6304 20.919 20.4348 21 20.2308 21C20.0268 21 19.8307 20.9186 19.6864 20.7743L15.0138 16.1016C14.8695 15.9574 14.7885 15.7617 14.7885 15.5577C14.7885 15.3537 14.8692 15.1577 15.0134 15.0134ZM9.84614 1C9.84614 1 11.6454 1 13.2897 1.69549C13.2897 1.69549 14.8773 2.36701 16.1013 3.59097C16.1013 3.59097 17.3253 4.81494 17.9968 6.40259C17.9968 6.40259 18.6923 8.04691 18.6923 9.84614C18.6923 9.84614 18.6923 11.6454 17.9968 13.2897C17.9968 13.2897 17.3253 14.8773 16.1013 16.1013C16.1013 16.1013 14.8773 17.3253 13.2897 17.9968C13.2897 17.9968 11.6454 18.6923 9.84614 18.6923C9.84614 18.6923 8.04691 18.6923 6.40258 17.9968C6.40258 17.9968 4.81494 17.3253 3.59097 16.1013C3.59097 16.1013 2.36701 14.8773 1.69549 13.2897C1.69549 13.2897 1 11.6454 1 9.84614C1 9.84614 1 8.04691 1.69549 6.40259C1.69549 6.40259 2.36701 4.81494 3.59097 3.59097C3.59097 3.59097 4.81494 2.36701 6.40258 1.69549C6.40258 1.69549 8.04691 1 9.84614 1Z" stroke="#151515" stroke-width="0.5"/>
</svg>
