<svg width="175" height="32" viewBox="0 0 175 32" fill="none" xmlns="http://www.w3.org/2000/svg">
<g clip-path="url(#clip0_2000_23283)">
<path d="M44.0745 0H3.80325C1.70277 0 0 1.68705 0 3.76814V28.2319C0 30.3129 1.70277 32 3.80325 32H44.0745C46.175 32 47.8777 30.3129 47.8777 28.2319V3.76814C47.8777 1.68705 46.175 0 44.0745 0Z" fill="#FA8258"/>
<path d="M9.07882 6.41462C9.55013 6.41462 9.97563 6.50542 10.3553 6.68702C10.735 6.86862 11.0361 7.12156 11.2521 7.43935C11.4747 7.75714 11.5794 8.12034 11.586 8.52893C11.586 8.93104 11.4747 9.29423 11.2521 9.61851C11.0361 9.9428 10.735 10.1892 10.3553 10.3708C9.97563 10.5524 9.55013 10.6432 9.07882 10.6432C8.6075 10.6432 8.17546 10.5524 7.78925 10.3708C7.40303 10.1892 7.10191 9.93631 6.8859 9.61851C6.66988 9.30072 6.55859 8.93104 6.55859 8.52893C6.55859 8.12682 6.66988 7.75714 6.8859 7.43935C7.10191 7.11507 7.40303 6.86862 7.78925 6.68702C8.17546 6.50542 8.60096 6.41462 9.07882 6.41462ZM9.07882 7.47826C8.83661 7.47826 8.62714 7.51718 8.43731 7.60149C8.24747 7.6858 8.10346 7.80903 7.99218 7.96468C7.88744 8.12682 7.83507 8.31491 7.83507 8.52893C7.83507 8.74944 7.88744 8.93753 7.99218 9.09967C8.09691 9.26181 8.24747 9.38503 8.43731 9.46935C8.62714 9.55366 8.84316 9.59906 9.07882 9.59906C9.31448 9.59906 9.53049 9.55366 9.71378 9.46935C9.90362 9.38503 10.0476 9.26181 10.1524 9.09967C10.2571 8.93753 10.3095 8.74944 10.3095 8.52893C10.3095 8.30842 10.2571 8.12682 10.1524 7.96468C10.0476 7.80254 9.90362 7.6858 9.71378 7.60149C9.52395 7.51718 9.31448 7.47826 9.07882 7.47826ZM14.2567 11.1751V13.6915H9.2752V14.8265H7.99218V12.7381H12.941V12.1738H7.96599V11.1751H14.2502H14.2567ZM14.512 14.2946V15.3194H7.99872V14.2946H14.512ZM14.2567 6.13574V10.7924H12.941V6.13574H14.2567Z" fill="white"/>
<path d="M18.4977 8.66513C18.4977 9.37855 18.393 10.0725 18.1835 10.7405C17.974 11.4085 17.6794 11.9987 17.2801 12.5111C16.8808 13.0299 16.4095 13.4126 15.8596 13.672L15.0938 12.6473C15.5912 12.4138 16.0233 12.083 16.3768 11.6615C16.7303 11.2334 16.9986 10.76 17.1754 10.2476C17.3521 9.72877 17.4438 9.20344 17.4503 8.67162V7.595H18.4977V8.67162V8.66513ZM20.6579 7.03076V8.0944H15.4734V7.03076H20.6579ZM18.7726 8.66513C18.7726 9.15804 18.8577 9.64446 19.0279 10.1309C19.1981 10.6173 19.46 11.0648 19.8069 11.4669C20.1538 11.869 20.5728 12.1868 21.0703 12.4138L20.3371 13.4321C19.7873 13.1856 19.3159 12.8094 18.9232 12.3165C18.5304 11.8236 18.2358 11.2529 18.0329 10.6238C17.83 9.98819 17.7318 9.33963 17.7318 8.66513V7.58852H18.7726V8.66513ZM22.7002 6.13574V15.4166H21.3845V6.13574H22.7002ZM24.0815 9.68337V10.7665H22.4057V9.68337H24.0815Z" fill="white"/>
<path d="M29.1544 6.9205V10.4941H26.0647V12.6019H24.7097V9.46935H27.8125V7.96468H24.7031V6.91402H29.1479L29.1544 6.9205ZM25.5541 12.1998C26.4378 12.1998 27.2299 12.1738 27.9369 12.1284C28.6438 12.083 29.3508 11.9987 30.084 11.882L30.1953 12.9391C29.4752 13.0624 28.7551 13.1532 28.0416 13.1986C27.3281 13.244 26.4967 13.2699 25.5607 13.2699H24.7228V12.2063H25.5607L25.5541 12.1998ZM32.0543 6.13574V15.4426H30.7451V6.13574H32.0543Z" fill="white"/>
<path d="M14.9645 21.5972V22.6154H6.42188V21.5972H14.9645ZM14.1986 17.9458V18.9122H7.17467V17.9458H14.1986ZM14.1331 20.1315V21.1043H7.23358V20.1315H14.1331ZM13.9171 23.1473V25.4367H8.6999V26.3187H7.41033V24.5482H12.621V24.0747H7.40378V23.1473H13.9171ZM14.1658 25.9426V26.9024H7.41687V25.9426H14.1658ZM9.69489 18.322V20.7735H8.38569V18.322H9.69489ZM12.9745 18.322V20.7735H11.6522V18.322H12.9745Z" fill="white"/>
<path d="M19.2512 18.3353V21.163H16.9666V22.7715H15.6967V20.2291H17.9943V19.3795H15.6836V18.3418H19.2577L19.2512 18.3353ZM16.3447 22.071C17.0648 22.071 17.6736 22.0516 18.158 22.0191C18.6424 21.9867 19.1334 21.9218 19.6374 21.831L19.7552 22.8428C19.4083 22.9141 19.0679 22.966 18.7275 22.9984C18.3871 23.0374 18.0402 23.0568 17.6867 23.0698C17.3332 23.0763 16.8815 23.0828 16.3447 23.0828H15.6967V22.0645H16.3447V22.071ZM20.58 23.6924C20.58 24.2372 20.4295 24.7301 20.1414 25.1776C19.8534 25.6251 19.4345 26.0013 18.8912 26.3126C18.3478 26.6174 17.6998 26.825 16.9535 26.9287L16.4364 25.917C17.0779 25.8391 17.6278 25.6835 18.0794 25.4565C18.5311 25.2295 18.8781 24.9636 19.1006 24.6588C19.3297 24.3539 19.441 24.0297 19.4476 23.6859V23.5108H20.5735V23.6859L20.58 23.6924ZM20.7699 23.6924C20.7699 24.0297 20.8811 24.3539 21.1103 24.6653C21.3394 24.9701 21.6798 25.236 22.138 25.463C22.5962 25.69 23.1461 25.8391 23.7941 25.9235L23.277 26.9352C22.5308 26.8314 21.8827 26.6239 21.3328 26.3191C20.7895 26.0143 20.3706 25.6381 20.0825 25.1906C19.7945 24.7431 19.657 24.2437 19.657 23.6989V23.5238H20.7699V23.6989V23.6924ZM21.3001 17.8618V23.1606H20.076V17.8618H21.3001ZM22.4784 19.9502V20.9944H20.9597V19.9502H22.4784ZM23.3621 17.6997V23.9324H22.1184V17.6997H23.3621Z" fill="white"/>
<path d="M32.7574 22.1874V23.2056H24.2148V22.1874H32.7574ZM31.9915 17.9458V18.99H24.9676V17.9458H31.9915ZM31.9261 20.3974V21.4415H25.0266V20.3974H31.9261ZM31.7297 23.8542V26.87H25.2033V23.8542H31.7297ZM27.4879 18.3349V21.0978H26.1787V18.3349H27.4879ZM26.4994 24.8659V25.8258H30.4532V24.8659H26.4994ZM29.1244 21.2145V22.6544H27.8086V21.2145H29.1244ZM30.774 18.3349V21.0978H29.4517V18.3349H30.774Z" fill="white"/>
<path d="M52.5138 26.5259H47.8203V24.2559H50.2227V19.4371H55.0275V14.4756H57.3186V21.707H52.5138V26.5259Z" fill="#FA8258"/>
<path d="M40.7052 18.0883H38.4141V10.8569H43.2189V6.03809H47.9124V8.30805H45.51V13.1269H40.7052V18.0883Z" fill="white"/>
<path d="M71.9766 5.20312C75.3281 5.17969 77.8828 7.3125 77.8828 10.2422C77.8828 13.1484 75.3281 15.2578 71.9766 15.2578C68.6016 15.2578 66.0234 13.1484 66.0469 10.2422C66.0234 7.3125 68.6016 5.17969 71.9766 5.20312ZM71.9766 8.22656C70.6406 8.25 69.6562 8.88281 69.6797 10.2422C69.6562 11.5781 70.6406 12.2578 71.9766 12.2578C73.3125 12.2578 74.25 11.5781 74.25 10.2422C74.25 8.88281 73.3125 8.25 71.9766 8.22656ZM84.0938 4.64062V15.3516H80.3203V4.64062H84.0938ZM84.0938 16.1484V22.4531H73.0078V23.2031H84.5625V26.1328H69.3281V19.7578H80.3438V19.0078H69.2812V16.1484H84.0938ZM94.9922 10.0781C94.9688 13.2891 96.2344 17.0859 100.078 18.8203L98.0156 21.75C95.6602 20.7188 94.0898 18.7617 93.1641 16.4062C92.2148 19.0312 90.5977 21.1992 88.125 22.3125L85.9688 19.3594C89.8828 17.5547 91.1719 13.5938 91.1719 10.0781V9.70312H86.8828V6.65625H99.0234V9.70312H94.9922V10.0781ZM103.852 4.64062V12.6094H106.781V15.7266H103.852V26.3203H100.078V4.64062H103.852ZM125.625 4.64062V26.3906H121.875V4.64062H125.625ZM118.828 6.35156V15.1172H112.289V18.3516C115.383 18.3164 117.926 18.1406 120.68 17.6719L120.984 20.6953C117.703 21.3047 114.539 21.4219 110.438 21.4219H108.398V12.1875H114.984V9.35156H108.398V6.35156H118.828ZM150.562 5.53125V13.2656H145.008V14.6484H153.047V17.5781H133.266V14.6484H141.211V13.2656H135.656V5.53125H150.562ZM139.312 8.41406V10.3359H146.859V8.41406H139.312ZM143.109 18.3984C147.82 18.3984 150.68 19.8047 150.703 22.4062C150.68 24.9375 147.82 26.3906 143.109 26.3906C138.328 26.3906 135.445 24.9375 135.445 22.4062C135.445 19.8047 138.328 18.3984 143.109 18.3984ZM143.109 21.2109C140.414 21.2344 139.266 21.5156 139.289 22.4062C139.266 23.2734 140.414 23.5547 143.109 23.5547C145.734 23.5547 146.93 23.2734 146.93 22.4062C146.93 21.5156 145.734 21.2344 143.109 21.2109ZM171.891 4.6875V9.60938H174.047V12.6562H171.891V17.5312H168.094V4.6875H171.891ZM160.102 6.14062V9.04688H157.898V13.3828C158.684 13.3359 159.387 13.2539 160.172 13.1016L160.477 16.1953C158.883 16.4531 157.617 16.4766 155.531 16.4766H154.336V6.14062H160.102ZM166.898 6.14062V9.04688H164.625V13.3594C165.738 13.3477 166.383 13.2891 167.156 13.1016L167.484 16.1484C166.219 16.4531 165.234 16.5 162.328 16.5H161.016V6.14062H166.898ZM164.297 17.7656C169.078 17.7656 172.031 19.3594 172.055 22.0547C172.031 24.7734 169.078 26.3203 164.297 26.3203C159.516 26.3203 156.539 24.7734 156.562 22.0547C156.539 19.3594 159.516 17.7656 164.297 17.7656ZM164.297 20.6719C161.625 20.6719 160.336 21.0234 160.359 22.0547C160.336 23.0625 161.625 23.4375 164.297 23.4375C166.992 23.4375 168.258 23.0625 168.258 22.0547C168.258 21.0234 166.992 20.6719 164.297 20.6719Z" fill="#151515"/>
</g>
<defs>
<clipPath id="clip0_2000_23283">
<rect width="174.319" height="32" fill="white"/>
</clipPath>
</defs>
</svg>
