<svg width="350" height="52" viewBox="0 0 350 52" fill="none" xmlns="http://www.w3.org/2000/svg">
<g filter="url(#filter0_i_2119_8700)">
<rect width="350" height="52" rx="20" fill="#EAFFFB"/>
<rect x="0.75" y="0.75" width="348.5" height="50.5" rx="19.25" stroke="url(#paint0_linear_2119_8700)" stroke-width="1.5"/>
<g clip-path="url(#clip0_2119_8700)">
<rect x="32" y="32" width="5" height="4" fill="white"/>
<rect x="25" y="20" width="5" height="16" fill="white"/>
<path d="M25 20H31V16C31 15.7349 30.8947 15.4805 30.7072 15.293C30.5195 15.1055 30.2653 15 30 15H26C25.7347 15 25.4805 15.1055 25.2928 15.293C25.1053 15.4805 25 15.7349 25 16V20Z" fill="#42F9C2"/>
<path d="M31 32H37V16C37 15.7349 36.8947 15.4805 36.7072 15.293C36.5195 15.1055 36.2653 15 36 15H32C31.7347 15 31.4805 15.1055 31.2928 15.293C31.1053 15.4805 31 15.7349 31 16V32Z" fill="#42F9C2"/>
<path d="M30 14C30 14 30.8283 14.0002 31.4141 14.5859C31.4144 14.5863 32 15.1718 32 16V36C32 36 31.9998 36.8283 31.4141 37.4141C31.4141 37.4141 30.8284 38 30 38H26C26 38 25.1717 37.9998 24.5859 37.4141C24.5852 37.4133 24 36.8279 24 36V16C24 16 24.0002 15.1717 24.5859 14.5859C24.5859 14.5859 25.1716 14 26 14H30ZM26 16V36H30V16H26Z" fill="#4A4BE9"/>
<path d="M25 21H31C31.5523 21 32 20.5523 32 20C32 19.4477 31.5523 19 31 19H25C24.4477 19 24 19.4477 24 20C24 20.5523 24.4477 21 25 21Z" fill="#4A4BE9"/>
<path d="M36 14C36 14 36.8283 14.0002 37.4141 14.5859C37.4144 14.5863 38 15.1718 38 16V36C38 36 37.9998 36.8283 37.4141 37.4141C37.4141 37.4141 36.8284 38 36 38H32C32 38 31.1717 37.9998 30.5859 37.4141C30.5852 37.4133 30 36.8279 30 36V16C30 16 30.0002 15.1717 30.5859 14.5859C30.5859 14.5859 31.1716 14 32 14H36ZM32 16V36H36V16H32Z" fill="#4A4BE9"/>
<path d="M31 33H37C37.5523 33 38 32.5523 38 32C38 31.4477 37.5523 31 37 31H31C30.4477 31 30 31.4477 30 32C30 32.5523 30.4477 33 31 33Z" fill="#4A4BE9"/>
<path d="M40.7433 31.8286L46.7501 31.8205L46.7525 35.82C46.7524 35.9516 46.7262 36.0818 46.6756 36.2035C46.625 36.3249 46.5507 36.4354 46.4574 36.5282C46.364 36.621 46.2531 36.6944 46.1313 36.7444C46.0094 36.7941 45.8789 36.8195 45.7473 36.8187L41.7478 36.8212C41.4834 36.8219 41.2296 36.7175 41.0418 36.5314C40.8539 36.3454 40.7476 36.0924 40.7457 35.828L40.7433 31.8286Z" fill="#42F9C2"/>
<path d="M40.7514 19.8219L46.7549 19.8258L46.7524 15.8266C46.7506 15.5615 46.6449 15.308 46.4582 15.12C46.2715 14.9322 46.0185 14.825 45.7536 14.8212L41.7541 14.8238C41.4893 14.8256 41.2356 14.9313 41.0477 15.118C40.8597 15.3047 40.7524 15.5578 40.7489 15.8225L40.7514 19.8219Z" fill="#42F9C2"/>
<path d="M41 31.5005V21.5005L41.0002 20.0005H46.5002L46.0002 31.5005H41Z" fill="white"/>
<path d="M45.7455 13.8242C45.7455 13.8242 46.5738 13.8244 47.1595 14.4102C47.1599 14.4105 47.7455 14.996 47.7455 15.8242V35.8242C47.7455 35.8242 47.7453 36.6525 47.1595 37.2383C47.1595 37.2383 46.5739 37.8242 45.7455 37.8242H41.7455C41.7455 37.8242 40.9172 37.8241 40.3314 37.2383C40.3306 37.2375 39.7455 36.6521 39.7455 35.8242V15.8242C39.7455 15.8242 39.7456 14.9959 40.3314 14.4102C40.3314 14.4102 40.9171 13.8242 41.7455 13.8242H45.7455ZM41.7455 15.8242V35.8242H45.7455V15.8242H41.7455Z" fill="#4A4BE9"/>
<path d="M40.7447 32.8287L46.7515 32.8206C47.0167 32.8203 47.2709 32.7146 47.4582 32.5268C47.5818 32.4028 47.6708 32.2486 47.7161 32.0794L47.7209 32.0607C47.7404 31.9817 47.7503 31.9006 47.7502 31.8193C47.7495 31.3672 47.4457 30.9717 47.009 30.8547L47.0007 30.8525C46.9184 30.8312 46.8338 30.8205 46.7488 30.8206L40.742 30.8287C40.2899 30.8293 39.8945 31.1332 39.7775 31.5699L39.7753 31.5782C39.754 31.6605 39.7433 31.7451 39.7434 31.8301C39.744 32.2822 40.0479 32.6776 40.4846 32.7947L40.4929 32.7968C40.5751 32.8181 40.6598 32.8288 40.7447 32.8287Z" fill="#4A4BE9"/>
<path d="M40.7508 20.8215L46.7544 20.8255C47.0196 20.8257 47.274 20.7205 47.4617 20.5331C47.586 20.4089 47.6755 20.2541 47.721 20.0843L47.7253 20.0675C47.745 19.9886 47.755 19.9075 47.755 19.8262C47.7553 19.3733 47.4513 18.9768 47.0139 18.8596L47.0075 18.8579C46.9253 18.8364 46.8407 18.8256 46.7557 18.8255L40.7522 18.8215C40.2993 18.8212 39.9028 19.1253 39.7856 19.5627L39.7839 19.5691C39.7624 19.6513 39.7516 19.7359 39.7515 19.8209C39.7512 20.2737 40.0553 20.6703 40.4927 20.7875L40.499 20.7891C40.5812 20.8106 40.6659 20.8215 40.7508 20.8215Z" fill="#4A4BE9"/>
<path d="M81.7461 19.5098V21.0742C81.7285 23.0254 81.7285 25.2227 81.1484 28.4395L78.9512 28.2461C79.4785 25.3193 79.4961 23.1396 79.4961 21.2852H69.916V19.5098H81.7461ZM83.0645 30.3379V32.166H68.4746V30.3379H71.5859V25.3105H73.8184V30.3379H75.5762V25.3105H77.791V30.3379H83.0645ZM98.2611 25.5918V27.3672H94.7455V28.8613H96.4857V34.1172H94.2533V30.6191H85.2884V28.8613H87.1166V27.3672H83.6713V25.5918H98.2611ZM90.9662 18.4375C94.4818 18.4199 96.767 19.6328 96.7845 21.584C96.767 23.5352 94.4818 24.748 90.9662 24.748C87.433 24.748 85.1302 23.5352 85.1302 21.584C85.1302 19.6328 87.433 18.4199 90.9662 18.4375ZM90.9662 20.1777C88.7338 20.1777 87.4505 20.6699 87.4681 21.584C87.4505 22.5332 88.7338 23.0078 90.9662 23.0078C93.181 23.0078 94.4642 22.5332 94.4642 21.584C94.4642 20.6699 93.181 20.1777 90.9662 20.1777ZM89.3841 28.8613H92.5306V27.3672H89.3841V28.8613ZM104.731 28.4043C103.904 28.4043 103.236 27.7363 103.254 26.9277C103.236 26.1191 103.904 25.4688 104.731 25.4688C105.504 25.4688 106.19 26.1191 106.19 26.9277C106.19 27.7363 105.504 28.4043 104.731 28.4043ZM125.79 26.0312V27.8066H119.761V30.5664H117.546V27.8066H111.147V26.0312H125.79ZM123.909 18.8242V24.7129H112.975V18.8242H123.909ZM115.173 20.5645V22.9727H121.712V20.5645H115.173ZM124.173 32.043V33.8359H112.87V29.1777H115.102V32.043H124.173ZM139.158 18.1211V24.625H141.25V26.4883H139.158V34.1172H136.891V18.1211H139.158ZM126.168 29.5996C127.337 29.5996 128.699 29.5996 130.123 29.5645V28.1934C128.418 27.8594 127.311 26.7783 127.328 25.293C127.311 23.5 128.928 22.2871 131.266 22.2871C133.551 22.2871 135.186 23.5 135.203 25.293C135.186 26.7783 134.061 27.8682 132.373 28.1934V29.4766C133.639 29.415 134.913 29.3096 136.1 29.1426L136.24 30.7773C132.83 31.4102 129.174 31.4277 126.467 31.4277L126.168 29.5996ZM135.977 19.8965V21.6543H126.485V19.8965H130.123V18.209H132.373V19.8965H135.977ZM131.266 23.9922C130.176 23.9922 129.438 24.4668 129.455 25.293C129.438 26.1367 130.176 26.5938 131.266 26.5938C132.32 26.5938 133.041 26.1367 133.041 25.293C133.041 24.4668 132.32 23.9922 131.266 23.9922ZM159.989 30.4082V32.2539H145.347V30.4082H151.516V27.1387H146.893V19.2988H158.354V27.1387H153.749V30.4082H159.989ZM149.108 21.0918V25.3809H156.14V21.0918H149.108ZM175.168 26.0137V27.8066H160.543V26.0137H175.168ZM173.569 22.9199V24.7129H162.319V18.7012H173.41V20.4941H164.551V22.9199H173.569ZM173.656 32.0254V33.8184H162.301V29.0547H164.516V32.0254H173.656ZM193.011 18.1211V27.6133H190.778V23.834H188.282V22.0234H190.778V18.1211H193.011ZM187.544 27.9648C190.954 27.9824 193.046 29.1074 193.063 31.0586C193.046 32.9922 190.954 34.1348 187.544 34.1348C184.134 34.1348 182.042 32.9922 182.042 31.0586C182.042 29.1074 184.134 27.9824 187.544 27.9648ZM187.544 29.6875C185.417 29.6875 184.274 30.127 184.274 31.0586C184.274 31.9727 185.417 32.4297 187.544 32.4297C189.671 32.4297 190.831 31.9727 190.831 31.0586C190.831 30.127 189.671 29.6875 187.544 29.6875ZM188.757 19.0879V20.8809H185.575C185.628 22.7441 186.753 24.625 189.249 25.4512L188.142 27.209C186.375 26.6377 185.162 25.4775 184.468 24.0273C183.756 25.6621 182.481 26.9805 180.583 27.6309L179.423 25.8555C182.051 24.9766 183.228 22.8848 183.29 20.8809H180.073V19.0879H188.757ZM209.368 30.4258V32.2539H194.725V30.4258H200.895V27.4727H196.272V19.1406H198.522V21.6191H205.5V19.1406H207.733V27.4727H203.127V30.4258H209.368ZM198.522 25.6797H205.5V23.4121H198.522V25.6797ZM213.56 19.7734L213.332 28.6855H211.082L210.853 19.7734H213.56ZM212.224 32.6582C211.398 32.6582 210.73 31.9902 210.748 31.1816C210.73 30.373 211.398 29.7227 212.224 29.7227C212.998 29.7227 213.683 30.373 213.683 31.1816C213.683 31.9902 212.998 32.6582 212.224 32.6582ZM336.329 18.9297C339.704 18.9473 342.341 20.7578 342.359 23.5352C342.341 26.3301 339.704 28.1582 336.329 28.1406C332.937 28.1582 330.318 26.3301 330.318 23.5352C330.318 20.7578 332.937 18.9473 336.329 18.9297ZM336.329 20.7578C334.115 20.7402 332.497 21.8125 332.497 23.5352C332.497 25.2754 334.115 26.3125 336.329 26.3125C338.544 26.3125 340.126 25.2754 340.144 23.5352C340.126 21.8125 338.544 20.7402 336.329 20.7578ZM343.677 30.3555V32.166H329.034V30.3555H343.677ZM358.874 30.4961V32.3418H344.231V30.4961H350.401V28.0879H345.919V22.709H354.971V20.9512H345.901V19.1582H357.186V24.4668H348.169V26.2598H357.555V28.0879H352.633V30.4961H358.874ZM376.611 18.1211V34.1523H374.343V18.1211H376.611ZM367.927 19.2461C370.335 19.2461 372.128 21.4609 372.128 24.9414C372.128 28.457 370.335 30.6543 367.927 30.6543C365.466 30.6543 363.673 28.457 363.691 24.9414C363.673 21.4609 365.466 19.2461 367.927 19.2461ZM367.927 21.2676C366.679 21.2676 365.853 22.5684 365.853 24.9414C365.853 27.332 366.679 28.6152 367.927 28.6152C369.14 28.6152 369.966 27.332 369.966 24.9414C369.966 22.5684 369.14 21.2676 367.927 21.2676ZM393.038 25.6797V27.4375H378.413V25.6797H384.635V24.3086H380.188V18.8242H391.28V20.5645H382.421V22.5508H391.368V24.3086H386.833V25.6797H393.038ZM385.69 28.2461C389.153 28.2461 391.245 29.3008 391.262 31.1992C391.245 33.0625 389.153 34.1348 385.69 34.1348C382.192 34.1348 380.083 33.0625 380.083 31.1992C380.083 29.3008 382.192 28.2461 385.69 28.2461ZM385.69 29.9512C383.475 29.9512 382.35 30.373 382.368 31.1992C382.35 32.043 383.475 32.4297 385.69 32.4297C387.852 32.4297 388.995 32.043 389.012 31.1992C388.995 30.373 387.852 29.9512 385.69 29.9512ZM401.326 20.5645V22.3398H393.592V20.5645H396.369V18.5605H398.584V20.5645H401.326ZM397.494 23.0605C399.533 23.0605 400.992 24.6426 401.01 26.8574C400.992 29.0898 399.533 30.6719 397.494 30.6719C395.455 30.6719 393.961 29.0898 393.961 26.8574C393.961 24.6426 395.455 23.0605 397.494 23.0605ZM397.494 24.9238C396.563 24.9238 395.93 25.6445 395.93 26.8574C395.93 28.0703 396.563 28.7734 397.494 28.7734C398.391 28.7734 399.024 28.0703 399.041 26.8574C399.024 25.6445 398.391 24.9238 397.494 24.9238ZM407.443 18.1211V34.1172H405.316V26.418H404.016V33.4316H401.924V18.4375H404.016V24.625H405.316V18.1211H407.443ZM412.884 18.3672V19.4746H419.3V18.3672H421.533V23.7285H417.173V24.7656H423.396V26.5234H408.806V24.7656H414.958V23.7285H410.669V18.3672H412.884ZM412.884 22.0586H419.3V21.0918H412.884V22.0586ZM421.621 27.3672V31.4102H412.708V32.3242H422.042V34.0117H410.511V29.8633H419.406V29.002H410.494V27.3672H421.621ZM436.817 18.1211V24.3965H438.944V26.2422H436.817V34.1172H434.567V18.1211H436.817ZM428.784 19.7559C428.766 24.1504 428.309 27.5781 425.444 30.7246L423.686 29.4766C425.866 27.1211 426.499 24.7744 426.639 21.584H424.389V19.7559H428.784ZM433.214 19.7559C433.214 24.3262 432.809 28.2812 429.979 31.7617L428.204 30.5137C430.375 27.8418 430.964 25.0996 431.104 21.584H429.311V19.7559H433.214ZM453.842 30.4082V32.2539H439.199V30.4082H442.469V26.4883C441.23 25.75 440.483 24.6162 440.483 23.2012C440.483 20.6172 443.014 18.8945 446.494 18.8945C449.957 18.8945 452.506 20.6172 452.524 23.2012C452.515 24.5811 451.785 25.7061 450.59 26.4531V30.4082H453.842ZM446.494 20.6699C444.209 20.6699 442.697 21.584 442.697 23.2012C442.697 24.7656 444.209 25.7324 446.494 25.7324C448.762 25.7324 450.291 24.7656 450.309 23.2012C450.291 21.584 448.762 20.6699 446.494 20.6699ZM444.684 30.4082H448.322V27.2969C447.751 27.4111 447.136 27.4727 446.494 27.4727C445.853 27.4727 445.246 27.4199 444.684 27.2969V30.4082ZM457.191 28.4922C457.209 26.3125 457.789 25.627 458.843 24.9766C459.599 24.4844 460.179 23.9395 460.179 23.1309C460.179 22.252 459.494 21.6719 458.65 21.6719C457.824 21.6719 457.068 22.2168 457.033 23.2539H454.537C454.589 20.7754 456.418 19.5977 458.668 19.5977C461.111 19.5977 462.851 20.8809 462.851 23.043C462.851 24.4844 462.113 25.416 460.953 26.1016C459.968 26.6992 459.529 27.2617 459.511 28.4922V28.6855H457.191V28.4922ZM458.404 32.6582C457.578 32.6582 456.91 31.9902 456.927 31.1816C456.91 30.373 457.578 29.7227 458.404 29.7227C459.177 29.7227 459.863 30.373 459.863 31.1816C459.863 31.9902 459.177 32.6582 458.404 32.6582Z" fill="#6566EB"/>
<path d="M233.459 25.3809V27.1914H227.272V28.3691C230.058 28.5801 231.702 29.582 231.719 31.2344C231.702 33.0801 229.61 34.1172 226.147 34.1172C222.631 34.1172 220.539 33.0801 220.539 31.2344C220.539 29.5732 222.201 28.5713 225.039 28.3691V27.1914H218.87V25.3809H233.459ZM226.147 30.0215C223.932 30.0391 222.807 30.4258 222.825 31.2344C222.807 32.0078 223.932 32.4297 226.147 32.4297C228.309 32.4297 229.452 32.0078 229.469 31.2344C229.452 30.4258 228.309 30.0391 226.147 30.0215ZM232.141 18.8066V20.5645H227.799C228.177 21.6895 229.803 22.7705 232.844 23.0254L232.053 24.7832C229.038 24.4932 226.999 23.3506 226.147 21.7949C225.303 23.3506 223.299 24.4932 220.258 24.7832L219.52 23.0254C222.482 22.7705 224.117 21.6807 224.53 20.5645H220.205V18.8066H232.141ZM243.154 19.1934V20.9863H239.972C239.99 22.8496 241.106 24.6514 243.664 25.3984L242.592 27.1562C240.825 26.6201 239.603 25.5479 238.9 24.168C238.188 25.7852 236.887 27.0684 234.963 27.7012L233.82 25.9258C236.474 25.0908 237.67 23.0166 237.705 20.9863H234.435V19.1934H243.154ZM246.758 18.1211V21.8301H248.92V23.6582H246.758V27.6133H244.508V18.1211H246.758ZM241.519 27.9297C244.842 27.9121 246.916 29.0547 246.916 31.0059C246.916 32.957 244.842 34.1172 241.519 34.1172C238.127 34.1172 236.035 32.957 236.035 31.0059C236.035 29.0547 238.127 27.9121 241.519 27.9297ZM241.519 29.6699C239.41 29.6699 238.267 30.1094 238.285 31.0059C238.267 31.9199 239.41 32.377 241.519 32.377C243.594 32.377 244.701 31.9199 244.701 31.0059C244.701 30.1094 243.594 29.6699 241.519 29.6699ZM262.745 18.1387V29.8984H260.513V24.6602H256.54V22.9023H260.513V21.6719H256.54V19.9141H260.513V18.1387H262.745ZM263.132 32.043V33.8359H252.11V28.8438H254.36V32.043H263.132ZM252.374 19.1406V25.9785C254.334 25.9609 256.162 25.8291 258.157 25.4688L258.386 27.2793C255.995 27.7363 253.833 27.8242 251.443 27.8242H250.159V19.1406H252.374ZM281.73 18.1211V27.6133H279.498V23.834H277.002V22.0234H279.498V18.1211H281.73ZM276.264 27.9648C279.674 27.9824 281.765 29.1074 281.783 31.0586C281.765 32.9922 279.674 34.1348 276.264 34.1348C272.853 34.1348 270.762 32.9922 270.762 31.0586C270.762 29.1074 272.853 27.9824 276.264 27.9648ZM276.264 29.6875C274.137 29.6875 272.994 30.127 272.994 31.0586C272.994 31.9727 274.137 32.4297 276.264 32.4297C278.39 32.4297 279.551 31.9727 279.551 31.0586C279.551 30.127 278.39 29.6875 276.264 29.6875ZM277.476 19.0879V20.8809H274.295C274.348 22.7441 275.473 24.625 277.969 25.4512L276.861 27.209C275.095 26.6377 273.882 25.4775 273.187 24.0273C272.475 25.6621 271.201 26.9805 269.303 27.6309L268.142 25.8555C270.77 24.9766 271.948 22.8848 272.01 20.8809H268.793V19.0879H277.476ZM298.087 30.4258V32.2539H283.445V30.4258H289.614V27.4727H284.991V19.1406H287.241V21.6191H294.22V19.1406H296.452V27.4727H291.847V30.4258H298.087ZM287.241 25.6797H294.22V23.4121H287.241V25.6797ZM311.385 18.7715V24.3438H307.044V25.6973H313.231V27.4551H298.641V25.6973H304.794V24.3438H300.452V18.7715H311.385ZM302.649 20.5117V22.5859H309.188V20.5117H302.649ZM305.919 28.334C309.381 28.334 311.473 29.3535 311.491 31.2344C311.473 33.0801 309.381 34.1348 305.919 34.1348C302.403 34.1348 300.311 33.0801 300.311 31.2344C300.311 29.3535 302.403 28.334 305.919 28.334ZM305.919 30.0215C303.704 30.0215 302.579 30.4082 302.596 31.2344C302.579 32.0605 303.704 32.4297 305.919 32.4297C308.081 32.4297 309.223 32.0605 309.241 31.2344C309.223 30.4082 308.081 30.0215 305.919 30.0215ZM326.881 18.1387V22.0059H328.691V23.834H326.881V27.6836H324.631V18.1387H326.881ZM318.373 19.2812V21.0566H316.351V24.8359C317.072 24.8184 317.767 24.748 318.531 24.5898L318.725 26.4355C317.406 26.6992 316.351 26.7168 315.033 26.7168H314.225V19.2812H318.373ZM323.471 19.2812V21.0566H321.326V24.8184C322.372 24.8096 323.022 24.7568 323.805 24.5723L324.016 26.4004C322.891 26.6641 322.012 26.6992 320.06 26.6992H319.182V19.2812H323.471ZM321.432 27.877C324.877 27.877 327.004 29.0371 327.004 30.9883C327.004 32.9746 324.877 34.0996 321.432 34.0996C317.969 34.0996 315.842 32.9746 315.859 30.9883C315.842 29.0371 317.969 27.877 321.432 27.877ZM321.432 29.6348C319.269 29.6348 318.092 30.0742 318.109 30.9883C318.092 31.9199 319.269 32.3594 321.432 32.3594C323.594 32.3594 324.754 31.9199 324.754 30.9883C324.754 30.0742 323.594 29.6348 321.432 29.6348Z" fill="#151515"/>
</g>
</g>
<defs>
<filter id="filter0_i_2119_8700" x="0" y="0" width="352" height="55" filterUnits="userSpaceOnUse" color-interpolation-filters="sRGB">
<feFlood flood-opacity="0" result="BackgroundImageFix"/>
<feBlend mode="normal" in="SourceGraphic" in2="BackgroundImageFix" result="shape"/>
<feColorMatrix in="SourceAlpha" type="matrix" values="0 0 0 0 0 0 0 0 0 0 0 0 0 0 0 0 0 0 127 0" result="hardAlpha"/>
<feOffset dx="2" dy="3"/>
<feGaussianBlur stdDeviation="2"/>
<feComposite in2="hardAlpha" operator="arithmetic" k2="-1" k3="1"/>
<feColorMatrix type="matrix" values="0 0 0 0 0.260916 0 0 0 0 0.327329 0 0 0 0 0.307369 0 0 0 0.3 0"/>
<feBlend mode="normal" in2="shape" result="effect1_innerShadow_2119_8700"/>
</filter>
<linearGradient id="paint0_linear_2119_8700" x1="36" y1="1.18141e-06" x2="307" y2="52" gradientUnits="userSpaceOnUse">
<stop stop-color="#711EF5"/>
<stop offset="0.509615" stop-color="#3262FF"/>
<stop offset="1" stop-color="#10B5F7"/>
</linearGradient>
<clipPath id="clip0_2119_8700">
<rect width="310" height="32" fill="white" transform="translate(20 10)"/>
</clipPath>
</defs>
</svg>
