<svg width="148" height="40" viewBox="0 0 148 40" fill="none" xmlns="http://www.w3.org/2000/svg">
<g clip-path="url(#clip0_2058_1495)">
<path d="M7.4396 3.45747C7.4396 6.69557 8.42282 9.84708 11.611 11.1689L9.8831 13.5643C7.95157 12.7158 6.71237 11.2266 5.95024 9.33337C5.20555 11.4113 3.90817 13.1083 1.83121 14.026L0.0742188 11.5614C3.33803 10.2165 4.41433 6.86873 4.41433 3.46324V1.29297H7.4396V3.46324V3.45747Z" fill="white" fill-opacity="0.8"/>
<path d="M14.918 0H11.9102V17.3564H14.918V0Z" fill="white" fill-opacity="0.8"/>
<path d="M32.1275 14.7066V17.0442H19.8867V11.1914H22.8887V14.7066H32.1275Z" fill="white" fill-opacity="0.8"/>
<path d="M18.0117 1.30469V9.84725H26.6221V1.30469H18.0117ZM23.6841 7.52691H20.9555V3.62503H23.6841V7.52691Z" fill="white" fill-opacity="0.8"/>
<path d="M31.7266 0.0175781H28.7188V12.26H31.7266V0.0175781Z" fill="white" fill-opacity="0.8"/>
<path d="M34 11.613C37.0078 11.613 41.1792 11.5783 44.7979 11.0762L45.0015 13.1945C41.2898 13.9333 37.3045 13.9853 34.3374 13.9853L34.0058 11.613H34Z" fill="white" fill-opacity="0.8"/>
<path d="M39.4907 1.125C36.7621 1.125 34.6328 2.96627 34.6328 5.47132C34.6328 7.97637 36.768 9.83496 39.4907 9.83496C42.2135 9.83496 44.3719 7.99369 44.3719 5.47132C44.3719 2.94895 42.2367 1.125 39.4907 1.125ZM39.4907 7.30682C38.4144 7.30682 37.5592 6.70076 37.5592 5.46555C37.5592 4.23034 38.4144 3.64159 39.4907 3.64159C40.567 3.64159 41.4397 4.24766 41.4397 5.46555C41.4397 6.68344 40.5845 7.30682 39.4907 7.30682Z" fill="white" fill-opacity="0.8"/>
<path d="M48.6563 0H45.6484V17.3391H48.6563V0Z" fill="white" fill-opacity="0.8"/>
<path d="M70.8367 8.4668H55.0703V10.8045H70.8367V8.4668Z" fill="#FF0A73"/>
<path d="M59.8359 14.7062H69.2434V17.0439H56.8281V11.8145H59.8359V14.7062Z" fill="#FF0A73"/>
<path d="M87.6218 8.4668H71.8555V10.8045H87.6218V8.4668Z" fill="#FF0A73"/>
<path d="M76.6192 14.7062H86.0266V17.0439H73.6172V11.8145H76.6192V14.7062Z" fill="#FF0A73"/>
<path d="M98.8292 3.97691H88.5898V1.67388H92.2027V0H95.2105V1.67388H98.8292V3.97691Z" fill="white" fill-opacity="0.8"/>
<path d="M93.9825 14.7071H102.948V17.0447H90.9805V12H93.9825V14.7071Z" fill="white" fill-opacity="0.8"/>
<path d="M93.7073 4.41602C91.1824 4.41602 89.3672 5.83593 89.3672 7.80418C89.3672 9.77244 91.1882 11.2097 93.7073 11.2097C96.2264 11.2097 98.0474 9.81284 98.0474 7.80418C98.0474 5.79553 96.2264 4.41602 93.7073 4.41602ZM93.7073 8.96436C92.8521 8.96436 92.2412 8.59495 92.2412 7.80418C92.2412 7.01342 92.8521 6.66133 93.7073 6.66133C94.5625 6.66133 95.1734 7.03073 95.1734 7.80418C95.1734 8.57763 94.5625 8.96436 93.7073 8.96436Z" fill="white" fill-opacity="0.8"/>
<path d="M104.594 5.07989V7.5099H102.424V12.9414H99.4219V0.0351562H102.424V5.07989H104.594Z" fill="white" fill-opacity="0.8"/>
<path d="M109.172 13.9171L110.673 11.8565C111.452 12.5953 112.418 13.161 113.512 13.161C114.85 13.161 115.682 12.4452 115.682 11.0253C115.682 9.60541 114.844 8.90699 113.657 8.90699C112.895 8.90699 112.523 9.05129 111.708 9.57077L110.26 8.62994L110.615 1.85938H118.37V4.58376H113.454L113.25 6.90411C113.751 6.70209 114.158 6.62705 114.681 6.62705C117.02 6.62705 118.987 7.98924 118.987 10.9503C118.987 13.9113 116.648 15.8103 113.995 15.8103C111.79 15.8103 110.266 14.9849 109.172 13.9171Z" fill="white" fill-opacity="0.8"/>
<path d="M125.369 1.59961C122.455 1.59961 120.488 3.91996 120.488 8.62991C120.488 13.3399 122.455 15.8103 125.369 15.8103C128.284 15.8103 130.268 13.3456 130.268 8.62991C130.268 3.91418 128.284 1.59961 125.369 1.59961ZM125.369 13.2706C124.386 13.2706 123.607 12.3875 123.607 8.62991C123.607 4.87234 124.386 4.12198 125.369 4.12198C126.353 4.12198 127.15 4.89542 127.15 8.62991C127.15 12.3644 126.353 13.2706 125.369 13.2706Z" fill="white" fill-opacity="0.8"/>
<path d="M141.117 10.1414C138.685 10.5628 136.422 10.6551 133.769 10.6551H132.32V1.0332H135.305V8.23089C137.236 8.19626 138.976 8.06351 140.849 7.75182L141.111 10.1472L141.117 10.1414Z" fill="white" fill-opacity="0.8"/>
<path d="M146.476 14.7076V17.0453H134.398V11.5215H137.406V14.7076H146.476Z" fill="white" fill-opacity="0.8"/>
<path d="M143.1 7.23258H139.277V4.93533H143.1V4.06953H139.277V1.7665H143.1V0.0175781H146.102V12.664H143.1V7.23258Z" fill="white" fill-opacity="0.8"/>
<path d="M7.16176 26.0841C7.16176 29.4318 8.03444 32.5834 11.1121 33.9225L9.33181 36.2601C7.51665 35.4116 6.34726 33.9398 5.63749 32.0812C4.93353 34.0668 3.70596 35.6541 1.85589 36.5545L0 34.1822C3.15327 32.7623 4.13648 29.4145 4.13648 26.0841V23.8965H7.16176V26.0841Z" fill="white" fill-opacity="0.8"/>
<path d="M15.1372 22.6445V39.9836H12.1293V30.1943H9.17969V27.8162H12.1293V22.6445H15.1372Z" fill="white" fill-opacity="0.8"/>
<path d="M25.6733 31.4983V32.3641H30.2171V37.0914H21.0307V37.6628H30.6418V39.8735H18.0636V35.0712H27.25V34.5344H18.0461V32.3641H22.6655V31.4983H16.3008V29.1953H32.0729V31.4983H25.6733Z" fill="white" fill-opacity="0.8"/>
<path d="M24.1887 22.793C20.1627 22.793 17.7891 23.8262 17.7891 25.7194C17.7891 27.6126 20.1627 28.6458 24.1887 28.6458C28.2146 28.6458 30.5883 27.6126 30.5883 25.7194C30.5883 23.8262 28.2146 22.793 24.1887 22.793ZM24.1887 26.4928C21.8499 26.4928 20.9074 26.3081 20.9074 25.7194C20.9074 25.1306 21.8557 24.9459 24.1887 24.9459C26.5216 24.9459 27.4699 25.1479 27.4699 25.7194C27.4699 26.2908 26.5449 26.4928 24.1887 26.4928Z" fill="white" fill-opacity="0.8"/>
<path d="M39.34 26.1059C39.34 29.344 40.3232 32.4955 43.5113 33.8173L41.7834 36.2127C39.8519 35.3642 38.6127 33.875 37.8506 31.9818C37.1059 34.0597 35.8085 35.7567 33.7316 36.6745L31.9688 34.2098C35.2326 32.8649 36.3089 29.5172 36.3089 26.1117V23.9414H39.3341V26.1117L39.34 26.1059Z" fill="white" fill-opacity="0.8"/>
<path d="M46.8203 22.6445H43.8125V40.001H46.8203V22.6445Z" fill="white" fill-opacity="0.8"/>
<path d="M47.6484 36.5596L49.1494 34.499C49.929 35.2378 50.8948 35.8035 51.9885 35.8035C53.3266 35.8035 54.1586 35.0877 54.1586 33.6678C54.1586 32.2479 53.3208 31.5495 52.134 31.5495C51.3719 31.5495 50.9995 31.6938 50.185 32.2133L48.7364 31.2724L49.0913 24.4961H56.8464V27.2205H51.9304L51.7267 29.5408C52.2271 29.3388 52.6343 29.2638 53.1579 29.2638C55.4967 29.2638 57.4631 30.626 57.4631 33.587C57.4631 36.548 55.1244 38.447 52.4714 38.447C50.2665 38.447 48.7422 37.6216 47.6484 36.5538V36.5596Z" fill="white" fill-opacity="0.8"/>
<path d="M63.0062 24.248C60.0914 24.248 58.125 26.5684 58.125 31.2783C58.125 35.9883 60.0914 38.4587 63.0062 38.4587C65.9209 38.4587 67.9048 35.9941 67.9048 31.2783C67.9048 26.5626 65.9209 24.248 63.0062 24.248ZM63.0062 35.9133C62.023 35.9133 61.2434 35.0302 61.2434 31.2726C61.2434 27.515 62.023 26.7646 63.0062 26.7646C63.9894 26.7646 64.7864 27.5381 64.7864 31.2726C64.7864 35.0071 63.9894 35.9133 63.0062 35.9133Z" fill="white" fill-opacity="0.8"/>
<path d="M83.952 29.6738H68.2031V31.9769H83.952V29.6738Z" fill="white" fill-opacity="0.8"/>
<path d="M72.9318 37.7367H82.5254V39.8723H69.9647V35.249H79.1452V34.7179H69.9414V32.5996H82.1123V37.1999H72.9318V37.7367Z" fill="white" fill-opacity="0.8"/>
<path d="M82.6116 25.2931V23.1055H69.5156V25.2931H71.517V26.8919H69.6785V29.0795H82.4254V26.8919H80.6102V25.2931H82.6116ZM77.6257 26.8977H74.5073V25.2988H77.6257V26.8977Z" fill="white" fill-opacity="0.8"/>
<path d="M87.6974 33.6514C89.7744 33.6168 91.6477 33.5244 93.6898 33.1896L93.9283 35.6023C91.3685 35.9891 88.9948 36.0641 86.208 36.0641H84.7245V28.4624H89.6231V26.3614H84.707V24.041H92.5902V30.7596H87.6916V33.6514H87.6974Z" fill="white" fill-opacity="0.8"/>
<path d="M98.8814 22.6445V40.001H95.8794V31.0197H93.4883V28.6474H95.8794V22.6445H98.8814Z" fill="white" fill-opacity="0.8"/>
<path d="M115.874 35.5664H100.125V37.9618H115.874V35.5664Z" fill="white" fill-opacity="0.8"/>
<path d="M114.204 32.9863C111.033 32.4149 108.991 30.8334 107.897 28.8247C106.786 30.8334 104.762 32.4149 101.608 32.9863L100.363 30.5217C104.744 29.7829 106.297 27.0065 106.297 24.7785V23.5664H109.509V24.7785C109.509 27.0585 111.01 29.7829 115.443 30.5217L114.198 32.9863H114.204Z" fill="white" fill-opacity="0.8"/>
<path d="M131.267 22.6602V39.9242H128.428V31.474H127.503V39.2027H124.722V34.435L123.425 36.1493C121.994 35.3759 121.034 34.1407 120.417 32.6169C119.882 34.4177 118.934 35.8723 117.433 36.7958L115.652 34.5505C118.305 32.969 118.881 29.8578 118.881 26.6371H116.286V24.2648H124.117V26.6371H121.796C121.796 29.4538 122.372 32.1955 124.728 33.6847V22.8968H127.509V29.1017H128.434V22.6602H131.273H131.267Z" fill="white" fill-opacity="0.8"/>
<path d="M142.007 31.9188C140.04 32.3632 138.092 32.4556 134.083 32.4556H132.582V23.9707H140.448V26.3084H135.567V30.1006C138.481 30.0659 140.058 29.9505 141.728 29.5869L142.007 31.9245V31.9188Z" fill="white" fill-opacity="0.8"/>
<path d="M137.387 37.3508H146.346V39.6885H134.379V33.8184H137.387V37.3508Z" fill="white" fill-opacity="0.8"/>
<path d="M147.998 27.1508V29.5635H145.828V35.1392H142.82V22.6602H145.828V27.1508H147.998Z" fill="white" fill-opacity="0.8"/>
<path d="M60.1836 2.92555H68.9802V0.587891H60.1836V2.92555Z" fill="#FF0A73"/>
<path d="M59.8927 3.21484H56.9023V7.3072H69.1314L69.1489 4.96953H59.8927V3.21484Z" fill="#FF0A73"/>
<path d="M76.6779 4.96953V3.21484H73.6875V7.3072H85.9166L85.9341 4.96953H76.6779Z" fill="#FF0A73"/>
<path d="M76.9766 2.92555H85.7673V0.587891H76.9766V2.92555Z" fill="#FF0A73"/>
<path d="M59.8869 0.587891H56.9023V2.92555H59.8869V0.587891Z" fill="white" fill-opacity="0.8"/>
<path d="M76.672 0.587891H73.6875V2.92555H76.672V0.587891Z" fill="white" fill-opacity="0.8"/>
</g>
<defs>
<clipPath id="clip0_2058_1495">
<rect width="148" height="40" fill="white"/>
</clipPath>
</defs>
</svg>
