<svg width="49" height="48" viewBox="0 0 49 48" fill="none" xmlns="http://www.w3.org/2000/svg">
<path d="M44.0349 41.8584H4.96512C4.16419 41.8584 3.5 42.5139 3.5 43.3042C3.5 44.0946 4.16419 44.75 4.96512 44.75H44.0349C44.8358 44.75 45.5 44.0946 45.5 43.3042C45.5 42.5139 44.8358 41.8584 44.0349 41.8584Z" fill="#A1AEC6"/>
<path d="M34.2674 4.75H14.7326C8.87209 4.75 6.9186 8.2006 6.9186 12.4608V43.3042H42.0814V12.4608C42.0814 8.2006 40.1279 4.75 34.2674 4.75ZM20.593 34.1476H14.7326C13.9316 34.1476 13.2674 33.4922 13.2674 32.7018C13.2674 31.9114 13.9316 31.256 14.7326 31.256H20.593C21.394 31.256 22.0581 31.9114 22.0581 32.7018C22.0581 33.4922 21.394 34.1476 20.593 34.1476ZM20.593 25.4729H14.7326C13.9316 25.4729 13.2674 24.8175 13.2674 24.0271C13.2674 23.2367 13.9316 22.5813 14.7326 22.5813H20.593C21.394 22.5813 22.0581 23.2367 22.0581 24.0271C22.0581 24.8175 21.394 25.4729 20.593 25.4729ZM20.593 16.7982H14.7326C13.9316 16.7982 13.2674 16.1428 13.2674 15.3524C13.2674 14.562 13.9316 13.9066 14.7326 13.9066H20.593C21.394 13.9066 22.0581 14.562 22.0581 15.3524C22.0581 16.1428 21.394 16.7982 20.593 16.7982ZM34.2674 34.1476H28.407C27.606 34.1476 26.9419 33.4922 26.9419 32.7018C26.9419 31.9114 27.606 31.256 28.407 31.256H34.2674C35.0684 31.256 35.7326 31.9114 35.7326 32.7018C35.7326 33.4922 35.0684 34.1476 34.2674 34.1476ZM34.2674 25.4729H28.407C27.606 25.4729 26.9419 24.8175 26.9419 24.0271C26.9419 23.2367 27.606 22.5813 28.407 22.5813H34.2674C35.0684 22.5813 35.7326 23.2367 35.7326 24.0271C35.7326 24.8175 35.0684 25.4729 34.2674 25.4729ZM34.2674 16.7982H28.407C27.606 16.7982 26.9419 16.1428 26.9419 15.3524C26.9419 14.562 27.606 13.9066 28.407 13.9066H34.2674C35.0684 13.9066 35.7326 14.562 35.7326 15.3524C35.7326 16.1428 35.0684 16.7982 34.2674 16.7982Z" fill="#A1AEC6"/>
</svg>
