<svg width="49" height="48" viewBox="0 0 49 48" fill="none" xmlns="http://www.w3.org/2000/svg">
<path d="M36.4998 4.79688H12.4998C8.52335 4.79688 5.2998 8.02042 5.2998 11.9969V35.9969C5.2998 39.9733 8.52335 43.1969 12.4998 43.1969H36.4998C40.4762 43.1969 43.6998 39.9733 43.6998 35.9969V11.9969C43.6998 8.02042 40.4762 4.79688 36.4998 4.79688Z" fill="#A1AEC6"/>
<path d="M24.5 30.0027C31.6542 30.0028 37.4998 33.5517 37.5 37.8952V42.5798C37.1365 42.7586 36.7545 42.9008 36.3574 43.0027H12.6416C12.2449 42.9008 11.8632 42.7585 11.5 42.5798V37.8952C11.5002 33.5516 17.3457 30.0027 24.5 30.0027Z" fill="white"/>
<path fill-rule="evenodd" clip-rule="evenodd" d="M31.3769 18.5465C31.3769 14.8835 28.2846 11.8906 24.4998 11.8906C20.7151 11.8906 17.6227 14.8835 17.6227 18.5465C17.6227 22.2096 20.7151 25.2025 24.4998 25.2025C28.2845 25.2025 31.3769 22.2096 31.3769 18.5465Z" fill="white"/>
<path d="M12.5 6.29688H36.5C39.6479 6.29698 42.2002 8.84911 42.2002 11.9971V35.9971C42.2001 39.1449 39.6479 41.6972 36.5 41.6973H12.5C9.35204 41.6973 6.79991 39.145 6.7998 35.9971V11.9971L6.80762 11.7031C6.95556 8.78893 9.29186 6.45264 12.2061 6.30469L12.5 6.29688Z" stroke="#A1AEC6" stroke-width="3" stroke-linecap="round" stroke-linejoin="round"/>
</svg>
