<svg width="40" height="40" viewBox="0 0 40 40" fill="none" xmlns="http://www.w3.org/2000/svg">
<circle cx="20" cy="19.9922" r="20" fill="#42D31A"/>
<mask id="mask0_1886_899" style="mask-type:alpha" maskUnits="userSpaceOnUse" x="0" y="-1" width="40" height="41">
<circle cx="20" cy="19.9922" r="20" fill="#42D31A"/>
</mask>
<g mask="url(#mask0_1886_899)">
<path d="M14.7694 14.5247C14.7694 14.6893 14.7694 14.8539 14.77 15.0185C14.7705 15.4327 14.7635 15.847 14.7787 16.2613C14.7857 16.3525 14.7904 16.4449 14.8134 16.5339C14.8388 16.6364 14.8887 16.7343 14.9634 16.8099C15.0337 16.8837 15.126 16.9328 15.2265 16.9499C15.3032 16.9989 15.369 17.0627 15.4331 17.1271L15.5101 17.2054V22.1459H18.0396L17.9901 16.5208C17.9392 16.4214 17.8893 16.3215 17.8412 16.2207C17.7494 16.0303 17.6578 15.8394 17.5464 15.6597C17.2945 15.2597 16.9304 14.9428 16.4996 14.7483C16.431 14.7176 16.3624 14.6882 16.2919 14.6624C16.0299 14.5661 15.7556 14.5096 15.4807 14.4651C15.3883 14.45 15.2959 14.4365 15.2036 14.4211L14.7694 14.3506V14.5247ZM9.13923 14.8144L9.15043 17.2883C9.15491 18.1636 9.15967 19.0386 9.16554 19.9139C9.16918 20.4541 9.17338 20.9943 9.17674 21.5349L9.18094 22.0975L9.57786 22.1073L9.60361 22.1078L9.70438 22.1106L9.71725 22.1109L9.83062 22.1143C10.1895 22.1249 10.5483 22.1372 10.9074 22.1395H10.9203C10.9618 22.1395 11.0035 22.1375 11.0452 22.1358C11.1412 22.1311 11.238 22.1165 11.327 22.079C11.364 22.0636 11.3993 22.0446 11.432 22.0219C11.5482 22.0891 11.6699 22.1476 11.7981 22.1879C11.8863 22.2167 11.9762 22.2405 12.0668 22.2582C12.344 22.3122 12.6295 22.3136 12.908 22.2719C13.1678 22.2322 13.4211 22.1583 13.6615 22.0521C13.7836 21.9998 13.9017 21.9374 14.0137 21.8657C14.3304 21.6608 14.6019 21.3932 14.8114 21.0794C14.852 21.0195 14.8909 20.9588 14.9248 20.8947C15.0149 20.7259 15.0765 20.542 15.1095 20.3536C15.1868 19.9402 15.198 19.5167 15.1627 19.0982C15.152 18.9595 15.1343 18.8214 15.1095 18.6845C15.065 18.446 14.9919 18.2109 14.8772 17.9959C14.8393 17.9267 14.7987 17.8589 14.7557 17.7927C14.5743 17.5117 14.3529 17.2544 14.0895 17.0473C14.0457 17.012 13.9999 16.9792 13.9523 16.949C13.7447 16.8172 13.5129 16.7265 13.2755 16.6644C12.8973 16.5629 12.5015 16.5454 12.1158 16.6128C11.9596 16.6411 11.806 16.6848 11.6587 16.7444V14.6655H9.13867L9.13923 14.8144ZM26.8648 16.5658C26.6943 16.5686 26.5244 16.5871 26.357 16.619C26.0344 16.6803 25.7242 16.7946 25.4389 16.9571C25.082 17.1653 24.7851 17.4622 24.5768 17.819C24.5124 17.9287 24.4572 18.0435 24.4105 18.1619C24.3145 18.4021 24.2515 18.6545 24.2154 18.9104C24.1398 18.5775 24.0021 18.2618 23.8095 17.9799C23.6318 17.7187 23.4136 17.4876 23.1629 17.2953C22.6226 16.8845 21.9695 16.6488 21.2914 16.6198C21.1719 16.6159 21.0523 16.6187 20.9331 16.6282C20.3591 16.6764 19.8087 16.8785 19.3398 17.2133C19.0818 17.3974 18.8553 17.6222 18.6692 17.8789C18.4911 18.1228 18.3583 18.3969 18.2773 18.6879C18.2448 18.8079 18.2227 18.9311 18.2115 19.0551C18.1919 19.2838 18.1737 19.5133 18.1835 19.7428C18.1858 19.8053 18.1908 19.8677 18.2006 19.9295C18.2264 20.0955 18.2798 20.2559 18.3456 20.4102C18.3842 20.5017 18.4271 20.5913 18.4713 20.6803C18.7099 21.1161 19.0401 21.495 19.4392 21.791C19.6748 21.9616 19.9376 22.091 20.2165 22.1736C20.4984 22.2593 20.7923 22.3024 21.0865 22.3119C21.2007 22.315 21.3152 22.3119 21.4291 22.3043C21.779 22.2827 22.1232 22.2056 22.4489 22.0759C22.4972 22.0569 22.5447 22.0356 22.591 22.0121C22.7954 21.9074 22.9871 21.7792 23.1652 21.6342C23.3272 21.5027 23.4778 21.3571 23.6181 21.2023C23.7079 21.1024 23.7896 20.9949 23.8624 20.8815C24.0201 20.6359 24.1358 20.3657 24.2048 20.0821C24.2364 20.3685 24.3027 20.6528 24.4211 20.9162C24.4953 21.0814 24.5905 21.2379 24.7066 21.377C24.8634 21.5632 25.0484 21.7236 25.255 21.8523C25.4683 21.9886 25.6987 22.0964 25.9338 22.1899C26.0357 22.2296 26.1415 22.2587 26.2487 22.2789V24.6231L26.6442 24.6063L26.6839 24.6047L26.7237 24.603L26.7366 24.6024L26.8219 24.5993C27.1903 24.5854 27.5587 24.575 27.9265 24.5515C28.1781 24.533 28.4287 24.4756 28.6565 24.3656C28.7192 24.3348 28.7819 24.3032 28.8426 24.2685C29.079 24.1318 29.2951 23.9629 29.4848 23.7666C29.5097 23.742 29.5326 23.7159 29.5547 23.6888C29.7087 23.5063 29.8442 23.3059 29.9382 23.0856C29.9802 22.9876 30.013 22.8854 30.037 22.7816C30.1014 22.5115 30.1277 22.2344 30.1417 21.9578C30.149 21.817 30.1538 21.6762 30.1588 21.5354C30.179 20.6397 30.1734 19.7437 30.1736 18.8477C30.1736 18.6282 30.1742 18.4088 30.1739 18.1893V16.6652H27.7303V16.7296C27.4557 16.6173 27.1614 16.5616 26.8648 16.5658ZM21.3314 18.961C21.3603 18.9622 21.3902 18.9636 21.4171 18.975C21.4266 18.9812 21.4342 18.9899 21.4431 18.9969C21.5411 19.0831 21.634 19.176 21.7152 19.2782C21.7261 19.2978 21.7281 19.3207 21.73 19.3426C21.734 19.3994 21.7286 19.4559 21.7242 19.5122C21.7038 19.6576 21.6289 19.7899 21.5148 19.8822C21.4585 19.9276 21.3927 19.9612 21.3225 19.9777C21.2323 20.0029 21.1349 19.9945 21.0473 19.9626C20.9354 19.9225 20.84 19.8465 20.7758 19.7465C20.7521 19.7076 20.7335 19.6657 20.7207 19.6219C20.6878 19.5025 20.6992 19.3753 20.7529 19.2636C20.7724 19.2228 20.7974 19.1847 20.8262 19.15C20.876 19.0783 20.946 19.019 21.0288 18.9899C21.0557 18.9804 21.084 18.9759 21.112 18.9722C21.1746 18.9637 21.2378 18.96 21.3009 18.961C21.311 18.9605 21.3211 18.9608 21.3314 18.961ZM27.272 18.9666C27.3185 18.9666 27.3647 18.9731 27.4086 18.9876C27.5363 19.0291 27.6455 19.1259 27.7003 19.2485C27.718 19.2849 27.7325 19.3221 27.742 19.3613C27.7653 19.4545 27.7647 19.555 27.7325 19.646C27.7196 19.6818 27.7014 19.716 27.6785 19.7468L27.6712 19.7563C27.6114 19.8313 27.5338 19.8904 27.4456 19.9281C27.384 19.9557 27.3192 19.9754 27.2527 19.9869C27.2088 19.9857 27.1655 19.9762 27.1251 19.9589C27.0789 19.9407 27.0337 19.9201 26.9896 19.8974C26.9137 19.8469 26.8552 19.7741 26.8222 19.6891C26.7775 19.58 26.7683 19.4595 26.7959 19.3448C26.8093 19.2908 26.8323 19.2393 26.8642 19.1937C26.9381 19.0761 27.0638 18.9921 27.2012 18.9714C27.2247 18.9678 27.2485 18.9661 27.272 18.9666ZM12.2118 19.0478C12.2628 19.0481 12.3137 19.0576 12.3605 19.0775C12.4677 19.1223 12.5564 19.2113 12.5984 19.3199C12.6205 19.3784 12.6278 19.4417 12.6239 19.5035C12.6182 19.5949 12.5871 19.6828 12.534 19.7574C12.4753 19.8183 12.4024 19.8638 12.3219 19.8898C12.2303 19.9209 12.1321 19.9321 12.0358 19.9228C11.9607 19.9117 11.8929 19.8719 11.8466 19.8117C11.7871 19.7403 11.751 19.6524 11.7433 19.5598C11.732 19.455 11.7533 19.3492 11.8043 19.2569C11.8365 19.2009 11.8824 19.1519 11.9389 19.1198C12.0209 19.0713 12.1167 19.0467 12.2118 19.0478Z" fill="#42D31A"/>
<path d="M19.4052 33.9796C19.2792 33.861 18.8426 32.9132 18.0202 30.9801L16.8205 28.1434H13.2507C11.1844 28.1434 9.51079 28.1141 9.28126 28.0695C8.68869 27.9584 7.88869 27.5363 7.45902 27.1066C7.02236 26.67 6.60025 25.9069 6.48157 25.344C6.4225 25.0776 6.40039 23.0185 6.40039 18.7898C6.40039 13.4869 6.41495 12.5612 6.51124 12.1836C6.86673 10.8207 7.99982 9.77634 9.36272 9.56165C10.0289 9.4508 29.2923 9.4508 29.9515 9.56165C31.2772 9.76907 32.3733 10.7171 32.7658 11.9762C32.9065 12.4428 32.9141 12.6575 32.9141 18.7675C32.9141 22.7445 32.8842 25.1887 32.8324 25.3958C32.6325 26.2773 31.877 27.2547 31.0773 27.6844C30.2552 28.1213 30.0551 28.1434 26.1298 28.1434H22.5676L21.3679 30.9801C20.7012 32.5353 20.1089 33.861 20.042 33.9276C19.82 34.1498 19.6126 34.1647 19.4052 33.9796ZM28.6183 23.8851C28.8405 23.7592 29.1294 23.5221 29.2626 23.3443C29.6996 22.7669 29.7292 22.5522 29.7292 19.6859V17.1084H28.174V17.575L28.0111 17.4269C27.6036 17.0566 27.0558 16.9307 26.4263 17.0566C25.2411 17.301 24.6191 18.1455 24.6191 19.5081C24.6191 20.6488 24.9301 21.2189 25.7743 21.6338C26.1522 21.8188 26.3448 21.8706 26.6779 21.8706C27.2111 21.8633 27.6556 21.7446 27.9148 21.5375L28.122 21.3743L28.0702 21.7004C27.9666 22.3448 27.626 22.6633 27.0334 22.6633H26.6927V24.1592L27.4555 24.1295C28.1223 24.1071 28.2555 24.0777 28.6183 23.8851ZM13.5544 21.6114C13.9765 21.4188 14.3838 21.004 14.5764 20.5967C14.7838 20.1301 14.7914 19.0267 14.5912 18.4489C14.4432 18.0122 13.9914 17.4639 13.6283 17.2716C12.8731 16.8789 11.9102 16.9455 11.3845 17.4269L11.2141 17.5753V15.109H9.58497L9.59953 18.3896L9.62192 21.6632L10.4216 21.6856C11.1771 21.7079 11.2141 21.7004 11.2141 21.552C11.2141 21.367 11.2365 21.367 11.5771 21.5893C12.0955 21.9372 12.8507 21.9448 13.5544 21.6117V21.6114ZM22.227 21.6856C22.6788 21.5226 23.2935 20.997 23.5378 20.5597C24.3451 19.1526 23.4267 17.4493 21.6789 17.1084C20.5828 16.8937 19.3976 17.4269 18.8795 18.375C18.7163 18.686 18.6573 18.8934 18.6349 19.3379C18.6055 19.8339 18.6276 19.9523 18.8053 20.3523C19.02 20.8338 19.5088 21.3597 19.9533 21.5893C20.5976 21.9224 21.4863 21.9596 22.227 21.6856ZM17.5684 19.1599L17.5463 16.6272L17.3019 16.1309C16.9613 15.4424 16.4205 15.0718 15.5317 14.9237L15.2135 14.8719V15.694C15.2135 16.3974 15.2283 16.5161 15.3319 16.5161C15.3985 16.5161 15.5614 16.6272 15.7022 16.768L15.9541 17.0197V21.7004H17.5905L17.5684 19.1599Z" fill="white"/>
<path d="M26.8626 20.331C26.3738 20.1236 26.1813 19.4571 26.4701 18.9829C26.8704 18.324 27.8034 18.3831 28.1143 19.0865C28.3439 19.6127 28.1143 20.153 27.559 20.3607C27.2847 20.4642 27.1512 20.457 26.8626 20.331ZM11.6731 20.2495C11.125 19.8717 11.184 18.9829 11.7766 18.7016C12.5912 18.3165 13.369 19.1237 12.9542 19.9237C12.7468 20.331 12.0431 20.5087 11.6731 20.2495ZM20.7157 20.2941C20.6054 20.228 20.5097 20.1401 20.4346 20.0358C20.3594 19.9315 20.3064 19.813 20.2787 19.6875C20.2509 19.562 20.2491 19.4321 20.2733 19.3058C20.2976 19.1796 20.3473 19.0596 20.4195 18.9533C20.6342 18.635 20.8637 18.5166 21.2786 18.5166C21.5526 18.5166 21.6413 18.5535 21.886 18.8052C22.1304 19.0498 22.1746 19.1386 22.1746 19.4126C22.1746 20.205 21.3676 20.6938 20.7157 20.2941Z" fill="white"/>
</g>
</svg>
