<svg width="24" height="20" viewBox="0 0 24 20" fill="none" xmlns="http://www.w3.org/2000/svg">
<path d="M1 10.9961L23 10.9961C23.5523 10.9961 24 10.5484 24 9.99609C24 9.44381 23.5523 8.99609 23 8.99609L1 8.99609C0.447716 8.99609 2.41411e-08 9.44381 0 9.99609C-2.41411e-08 10.5484 0.447716 10.9961 1 10.9961Z" fill="#CDD9EA"/>
<path d="M21.5858 9.99609L13.2929 18.289C13.1054 18.4765 13 18.7309 13 18.9961C13 19.2613 13.1054 19.5157 13.2929 19.7032C13.4804 19.8907 13.7348 19.9961 14 19.9961C14.2652 19.9961 14.5196 19.8907 14.7071 19.7032L23.7071 10.7032C23.8946 10.5157 24 10.2613 24 9.99609C24 9.73088 23.8946 9.47652 23.7071 9.28899L14.7075 0.289362C14.5199 0.101826 14.2652 -0.00390624 14 -0.00390625C13.7348 -0.00390626 13.4804 0.101451 13.2929 0.288987C13.1054 0.476523 13 0.730877 13 0.996094C13 1.26131 13.1054 1.51566 13.2929 1.7032L21.5858 9.99609Z" fill="#CDD9EA"/>
</svg>
