<svg width="24" height="24" viewBox="0 0 24 24" fill="none" xmlns="http://www.w3.org/2000/svg">
<path d="M13.5 7.5C13.5 9.433 11.933 11 10 11C8.067 11 6.5 9.433 6.5 7.5C6.5 5.567 8.067 4 10 4C11.933 4 13.5 5.567 13.5 7.5Z" stroke="#333333" stroke-width="1.5" stroke-linecap="round"/>
<path d="M16 10.5H21" stroke="#333333" stroke-width="1.5" stroke-linecap="round"/>
<path d="M18.5 13V8" stroke="#333333" stroke-width="1.5" stroke-linecap="round"/>
<path d="M3 18C3 15.7909 4.79086 14 7 14H13C15.2091 14 17 15.7909 17 18V20C17 20.5523 16.5523 21 16 21H4C3.44772 21 3 20.5523 3 20V18Z" stroke="#333333" stroke-width="1.5" stroke-linecap="round"/>
</svg>
