<svg width="24" height="24" viewBox="0 0 24 24" fill="none" xmlns="http://www.w3.org/2000/svg">
<path fill-rule="evenodd" clip-rule="evenodd" d="M3 11.1795C3 10.1252 3.8547 9.27051 4.90903 9.27051H19.0911C20.1454 9.27051 21.0001 10.1252 21.0001 11.1795V20.7272C21.0001 21.7815 20.1454 22.6362 19.0911 22.6362H4.90903C3.8547 22.6362 3 21.7815 3 20.7272V11.1795ZM4.90903 10.9068C4.75841 10.9068 4.63631 11.0289 4.63631 11.1795V20.7272C4.63631 20.8778 4.75841 20.9999 4.90903 20.9999H19.0911C19.2417 20.9999 19.3638 20.8778 19.3638 20.7272V11.1795C19.3638 11.0289 19.2417 10.9068 19.0911 10.9068H4.90903Z" fill="#333333"/>
<path fill-rule="evenodd" clip-rule="evenodd" d="M6.27344 7.09012C6.27344 3.92727 8.83743 1.36328 12.0003 1.36328C15.1631 1.36328 17.7271 3.92727 17.7271 7.09012V10.0886C17.7271 10.5404 17.3608 10.9067 16.909 10.9067C16.4571 10.9067 16.0908 10.5404 16.0908 10.0886V7.09012C16.0908 4.83098 14.2594 2.99959 12.0003 2.99959C9.74114 2.99959 7.90974 4.83098 7.90974 7.09012V10.0886C7.90974 10.5404 7.54344 10.9067 7.09159 10.9067C6.63974 10.9067 6.27344 10.5404 6.27344 10.0886V7.09012Z" fill="#333333"/>
<path d="M13.6359 15.189C13.6359 16.0927 12.9033 16.8253 11.9996 16.8253C11.0959 16.8253 10.3633 16.0927 10.3633 15.189C10.3633 14.2853 11.0959 13.5527 11.9996 13.5527C12.9033 13.5527 13.6359 14.2853 13.6359 15.189Z" fill="#333333"/>
<path fill-rule="evenodd" clip-rule="evenodd" d="M12.0467 15.2656C12.4985 15.2656 12.8648 15.6319 12.8648 16.0838V18.3533C12.8648 18.8052 12.4985 19.1715 12.0467 19.1715C11.5948 19.1715 11.2285 18.8052 11.2285 18.3533V16.0838C11.2285 15.6319 11.5948 15.2656 12.0467 15.2656Z" fill="#333333"/>
</svg>
