<svg width="48" height="48" viewBox="0 0 48 48" fill="none" xmlns="http://www.w3.org/2000/svg">
<path d="M36.001 4.80078C39.9773 4.80089 43.2012 8.02459 43.2012 12.001V36.001C43.2012 39.9774 39.9773 43.2011 36.001 43.2012H12.001C8.02453 43.2012 4.80078 39.9774 4.80078 36.001V12.001C4.80078 8.02453 8.02453 4.80078 12.001 4.80078H36.001ZM24.002 14.7998C22.8974 14.7998 22.002 15.6952 22.002 16.7998V22H16.8018C15.6972 22 14.8018 22.8954 14.8018 24C14.8019 25.1045 15.6973 26 16.8018 26H22.002V31.2002C22.0022 32.3046 22.8975 33.2002 24.002 33.2002C25.1063 33.2001 26.0017 32.3045 26.002 31.2002V26H31.2021L31.4062 25.9893C32.4147 25.8868 33.202 25.0354 33.2021 24C33.2021 22.9645 32.4148 22.1122 31.4062 22.0098L31.2021 22H26.002V16.7998C26.002 15.6953 25.1064 14.7999 24.002 14.7998Z" fill="#A1AEC6"/>
</svg>
