<svg width="36" height="30" viewBox="0 0 36 30" fill="none" xmlns="http://www.w3.org/2000/svg">
<path fill-rule="evenodd" clip-rule="evenodd" d="M17.724 20.2579L1.57014 11.6425C1.31812 11.5081 1.12982 11.2791 1.04666 11.0059C0.9635 10.7326 0.99229 10.4375 1.1267 10.1855C1.22725 9.99699 1.38161 9.84263 1.57014 9.74208L17.724 1.1267C18.0407 0.957768 18.4208 0.957768 18.7376 1.1267L34.8914 9.74208C35.1434 9.87649 35.3317 10.1055 35.4149 10.3787C35.498 10.652 35.4692 10.9471 35.3348 11.1991C35.2343 11.3876 35.0799 11.542 34.8914 11.6425L18.7376 20.2579C18.4208 20.4268 18.0407 20.4268 17.724 20.2579ZM4.36539 10.6923L18.2308 18.0872L32.0962 10.6923L18.2308 3.29744L4.36539 10.6923Z" fill="#FFF3C7"/>
<path d="M26.8145 14.0498L18.7376 9.74208C18.5816 9.6589 18.4075 9.61539 18.2308 9.61539C18.1988 9.61539 18.1668 9.61681 18.135 9.61965C17.7729 9.65199 17.4516 9.86479 17.2805 10.1855C17.1974 10.3415 17.1538 10.5155 17.1538 10.6923C17.1538 10.7243 17.1553 10.7563 17.1581 10.7881C17.1905 11.1502 17.4032 11.4715 17.724 11.6425L25.2308 15.6462V27.9231C25.2308 28.5178 25.7129 29 26.3077 29C26.9025 29 27.3846 28.5178 27.3846 27.9231V15C27.3846 14.6023 27.1654 14.2369 26.8145 14.0498Z" fill="#FFF3C7"/>
<path d="M6.92308 20.0348V12.6981C6.92308 12.1034 6.44092 11.6212 5.84615 11.6212C5.25139 11.6212 4.76923 12.1034 4.76923 12.6981V20.0481C4.77226 20.7667 5.20553 21.3343 5.20553 21.3343C6.69865 23.3401 9.12009 24.8606 9.12009 24.8606C13.1396 27.3847 18.2308 27.3847 18.2308 27.3847C23.3219 27.3847 27.3414 24.8606 27.3414 24.8606C29.7629 23.3401 31.2638 21.3239 31.2638 21.3239C31.6893 20.7667 31.6923 20.0527 31.6923 20.0527L31.6923 12.6981C31.6923 12.1034 31.2102 11.6212 30.6154 11.6212C30.0206 11.6212 29.5385 12.1034 29.5385 12.6981L29.5385 20.043C29.5384 20.0371 29.5373 20.0369 29.5373 20.0369L29.5362 20.0377C28.276 21.7305 26.1961 23.0366 26.1961 23.0366C22.7018 25.2308 18.2308 25.2308 18.2308 25.2308C13.7598 25.2308 10.2655 23.0366 10.2655 23.0366C8.19007 21.7333 6.92308 20.0348 6.92308 20.0348Z" fill="#FFF3C7"/>
<path fill-rule="evenodd" clip-rule="evenodd" d="M17.724 20.2579L1.57014 11.6425C1.31812 11.5081 1.12982 11.2791 1.04666 11.0059C0.9635 10.7326 0.99229 10.4375 1.1267 10.1855C1.22725 9.99699 1.38161 9.84263 1.57014 9.74208L17.724 1.1267C18.0407 0.957768 18.4208 0.957768 18.7376 1.1267L34.8914 9.74208C35.1434 9.87649 35.3317 10.1055 35.4149 10.3787C35.498 10.652 35.4692 10.9471 35.3348 11.1991C35.2343 11.3876 35.0799 11.542 34.8914 11.6425L18.7376 20.2579C18.4208 20.4268 18.0407 20.4268 17.724 20.2579ZM4.36539 10.6923L18.2308 18.0872L32.0962 10.6923L18.2308 3.29744L4.36539 10.6923Z" stroke="#FFF3C7" stroke-width="0.5"/>
<path d="M26.8145 14.0498L18.7376 9.74208C18.5816 9.6589 18.4075 9.61539 18.2308 9.61539C18.1988 9.61539 18.1668 9.61681 18.135 9.61965C17.7729 9.65199 17.4516 9.86479 17.2805 10.1855C17.1974 10.3415 17.1538 10.5155 17.1538 10.6923C17.1538 10.7243 17.1553 10.7563 17.1581 10.7881C17.1905 11.1502 17.4032 11.4715 17.724 11.6425L25.2308 15.6462V27.9231C25.2308 28.5178 25.7129 29 26.3077 29C26.9025 29 27.3846 28.5178 27.3846 27.9231V15C27.3846 14.6023 27.1654 14.2369 26.8145 14.0498Z" stroke="#FFF3C7" stroke-width="0.5"/>
<path d="M6.92308 20.0348V12.6981C6.92308 12.1034 6.44092 11.6212 5.84615 11.6212C5.25139 11.6212 4.76923 12.1034 4.76923 12.6981V20.0481C4.77226 20.7667 5.20553 21.3343 5.20553 21.3343C6.69865 23.3401 9.12009 24.8606 9.12009 24.8606C13.1396 27.3847 18.2308 27.3847 18.2308 27.3847C23.3219 27.3847 27.3414 24.8606 27.3414 24.8606C29.7629 23.3401 31.2638 21.3239 31.2638 21.3239C31.6893 20.7667 31.6923 20.0527 31.6923 20.0527L31.6923 12.6981C31.6923 12.1034 31.2102 11.6212 30.6154 11.6212C30.0206 11.6212 29.5385 12.1034 29.5385 12.6981L29.5385 20.043C29.5384 20.0371 29.5373 20.0369 29.5373 20.0369L29.5362 20.0377C28.276 21.7305 26.1961 23.0366 26.1961 23.0366C22.7018 25.2308 18.2308 25.2308 18.2308 25.2308C13.7598 25.2308 10.2655 23.0366 10.2655 23.0366C8.19007 21.7333 6.92308 20.0348 6.92308 20.0348Z" stroke="#FFF3C7" stroke-width="0.5"/>
</svg>
