<svg width="30" height="27" viewBox="0 0 30 27" fill="none" xmlns="http://www.w3.org/2000/svg">
<path fill-rule="evenodd" clip-rule="evenodd" d="M1 6.50001C1 6.50001 1 5.60254 1.63085 4.96794C1.63085 4.96794 2.26169 4.33333 3.15385 4.33333H26.8462C26.8462 4.33333 27.7383 4.33334 28.3692 4.96794C28.3692 4.96794 29 5.60254 29 6.50001V23.8333C29 23.8333 29 24.7308 28.3692 25.3654C28.3692 25.3654 27.7383 26 26.8462 26H3.15385C3.15385 26 2.26169 26 1.63085 25.3654C1.63085 25.3654 1 24.7308 1 23.8333V6.50001ZM3.15385 6.50001V23.8333H26.8462V6.50001H3.15385Z" fill="#A9A9A9"/>
<path d="M9.48473 1.28491C8.53846 2.23681 8.53846 3.58301 8.53846 3.58301L8.53846 5.41667C8.53846 6.01498 9.02062 6.50001 9.61538 6.50001C10.2102 6.50001 10.6923 6.01498 10.6923 5.41667L10.6923 3.58301C10.6923 3.13428 11.0077 2.81698 11.0077 2.81698C11.3232 2.49967 11.7692 2.49967 11.7692 2.49967H18.2308C18.6768 2.49967 18.9923 2.81698 18.9923 2.81698C19.3077 3.13428 19.3077 3.58301 19.3077 3.58301L19.3077 5.41667C19.3077 6.01498 19.7898 6.50001 20.3846 6.50001C20.9794 6.50001 21.4615 6.01498 21.4615 5.41667L21.4615 3.58301C21.4615 2.23682 20.5153 1.28491 20.5153 1.28491C19.569 0.333008 18.2308 0.333008 18.2308 0.333008H11.7692C10.431 0.333008 9.48473 1.28491 9.48473 1.28491Z" fill="#A9A9A9"/>
<path d="M2.61795 11.8332C2.45376 11.7374 2.26675 11.6866 2.07692 11.6866C2.0578 11.6866 2.03868 11.6871 2.01958 11.6881C1.65659 11.7076 1.32787 11.9099 1.14544 12.2262C1.05018 12.3914 1 12.5789 1 12.7699C1 12.7891 1.00051 12.8084 1.00153 12.8276C1.02088 13.1927 1.22205 13.5234 1.53645 13.7069C7.78205 17.3524 15.0028 17.3334 15.0028 17.3334C22.2152 17.3421 28.4622 13.7077 28.4622 13.7077C28.795 13.5141 29 13.1567 29 12.7699C29 12.7529 28.9996 12.7359 28.9988 12.7189C28.9907 12.5459 28.9415 12.3774 28.8553 12.2275C28.6628 11.8928 28.3075 11.6866 27.9231 11.6866C27.9062 11.6866 27.8892 11.687 27.8723 11.6878C27.7004 11.6959 27.5329 11.7454 27.3839 11.8321C21.6388 15.1743 14.9972 15.1668 14.9972 15.1668C8.35937 15.1842 2.61795 11.8332 2.61795 11.8332Z" fill="#A9A9A9"/>
<path d="M13.3846 13H16.6154C17.2102 13 17.6923 12.515 17.6923 11.9167C17.6923 11.3184 17.2102 10.8333 16.6154 10.8333H13.3846C12.7898 10.8333 12.3077 11.3184 12.3077 11.9167C12.3077 12.515 12.7898 13 13.3846 13Z" fill="#A9A9A9"/>
<path fill-rule="evenodd" clip-rule="evenodd" d="M1 6.50001C1 6.50001 1 5.60254 1.63085 4.96794C1.63085 4.96794 2.26169 4.33333 3.15385 4.33333H26.8462C26.8462 4.33333 27.7383 4.33334 28.3692 4.96794C28.3692 4.96794 29 5.60254 29 6.50001V23.8333C29 23.8333 29 24.7308 28.3692 25.3654C28.3692 25.3654 27.7383 26 26.8462 26H3.15385C3.15385 26 2.26169 26 1.63085 25.3654C1.63085 25.3654 1 24.7308 1 23.8333V6.50001ZM3.15385 6.50001V23.8333H26.8462V6.50001H3.15385Z" stroke="#A9A9A9" stroke-width="0.3"/>
<path d="M9.48473 1.28491C8.53846 2.23681 8.53846 3.58301 8.53846 3.58301L8.53846 5.41667C8.53846 6.01498 9.02062 6.50001 9.61538 6.50001C10.2102 6.50001 10.6923 6.01498 10.6923 5.41667L10.6923 3.58301C10.6923 3.13428 11.0077 2.81698 11.0077 2.81698C11.3232 2.49967 11.7692 2.49967 11.7692 2.49967H18.2308C18.6768 2.49967 18.9923 2.81698 18.9923 2.81698C19.3077 3.13428 19.3077 3.58301 19.3077 3.58301L19.3077 5.41667C19.3077 6.01498 19.7898 6.50001 20.3846 6.50001C20.9794 6.50001 21.4615 6.01498 21.4615 5.41667L21.4615 3.58301C21.4615 2.23682 20.5153 1.28491 20.5153 1.28491C19.569 0.333008 18.2308 0.333008 18.2308 0.333008H11.7692C10.431 0.333008 9.48473 1.28491 9.48473 1.28491Z" stroke="#A9A9A9" stroke-width="0.3"/>
<path d="M2.61795 11.8332C2.45376 11.7374 2.26675 11.6866 2.07692 11.6866C2.0578 11.6866 2.03868 11.6871 2.01958 11.6881C1.65659 11.7076 1.32787 11.9099 1.14544 12.2262C1.05018 12.3914 1 12.5789 1 12.7699C1 12.7891 1.00051 12.8084 1.00153 12.8276C1.02088 13.1927 1.22205 13.5234 1.53645 13.7069C7.78205 17.3524 15.0028 17.3334 15.0028 17.3334C22.2152 17.3421 28.4622 13.7077 28.4622 13.7077C28.795 13.5141 29 13.1567 29 12.7699C29 12.7529 28.9996 12.7359 28.9988 12.7189C28.9907 12.5459 28.9415 12.3774 28.8553 12.2275C28.6628 11.8928 28.3075 11.6866 27.9231 11.6866C27.9062 11.6866 27.8892 11.687 27.8723 11.6878C27.7004 11.6959 27.5329 11.7454 27.3839 11.8321C21.6388 15.1743 14.9972 15.1668 14.9972 15.1668C8.35937 15.1842 2.61795 11.8332 2.61795 11.8332Z" stroke="#A9A9A9" stroke-width="0.3"/>
<path d="M13.3846 13H16.6154C17.2102 13 17.6923 12.515 17.6923 11.9167C17.6923 11.3184 17.2102 10.8333 16.6154 10.8333H13.3846C12.7898 10.8333 12.3077 11.3184 12.3077 11.9167C12.3077 12.515 12.7898 13 13.3846 13Z" stroke="#A9A9A9" stroke-width="0.3"/>
</svg>
