<svg width="109" height="30" viewBox="0 0 109 30" fill="none" xmlns="http://www.w3.org/2000/svg">
<g clip-path="url(#clip0_2058_1543)">
<path d="M16.609 3.99699C16.6658 4.08581 16.7417 4.16828 16.748 4.25709C16.8301 4.51719 17.0766 4.67578 17.1019 4.94222C17.1145 5.03104 17.2283 5.0691 17.2852 5.10716C17.3484 5.18963 17.3041 5.28479 17.4305 5.41167C17.4874 5.44973 17.4431 5.54489 17.4558 5.6337C17.5127 5.67176 17.5759 5.70983 17.6327 5.75423C18.1699 6.59796 18.2268 7.58126 17.6011 8.49477C17.5 8.59627 17.4052 8.73584 17.3673 8.8754C17.3168 8.92615 17.2093 8.9769 17.1588 9.02765C17.1714 9.11647 17.2283 9.15453 17.2915 9.24334C17.0197 9.31313 16.9881 9.5415 16.7859 9.69376C16.729 9.69376 16.6216 9.70644 16.5647 9.71279C16.4131 9.86504 16.2551 9.92214 16.0971 10.0236C16.0465 10.0744 16.0592 10.2076 16.0655 10.252C15.8064 10.455 15.4335 10.5819 15.0417 10.5756C14.9912 10.5756 14.9469 10.7215 14.89 10.7215C14.612 10.7468 14.277 10.7341 14.0053 10.7595C13.8915 10.7278 13.822 10.6453 13.7083 10.6073C13.6008 10.62 13.4871 10.6263 13.3733 10.5946C13.1901 10.474 12.9689 10.455 12.7919 10.3789C12.6782 10.3408 12.4696 10.455 12.3496 10.3789C11.9767 10.0554 11.6102 9.73182 11.4016 9.38925C11.2689 9.17991 11.0351 9.11012 10.9593 8.89443C10.9466 8.80562 10.9909 8.66606 10.8771 8.63434C10.6433 8.56455 10.7444 8.42499 10.7254 8.28543C10.6559 8.15855 10.6433 8.06974 10.5232 7.94286C10.4537 7.81598 10.5422 7.62567 10.4727 7.45438C10.4727 7.40998 10.5169 7.35922 10.5106 7.31482C10.4284 7.05472 10.5611 6.76925 10.5359 6.54721C10.5169 6.41399 10.5548 6.23002 10.599 6.09046C10.7381 5.80499 10.8645 5.48145 11.1173 5.18963C11.1173 5.14523 11.1046 5.05641 11.0983 5.01201C11.1489 4.96126 11.2057 4.96125 11.2563 4.90416C11.3448 4.67578 11.4332 4.48547 11.5786 4.28881C11.7745 4.04774 12.0841 3.8384 12.3369 3.59099C12.4886 3.44508 12.6971 3.33089 12.8425 3.09617C12.8931 3.04542 13.07 3.12154 13.1206 3.07079C13.2722 2.92488 13.4997 2.94392 13.6514 2.84241C13.8094 2.74091 13.7778 2.96295 13.9358 2.90585C14.0432 2.89951 14.0938 2.84876 14.2012 2.79166C14.3592 2.72822 14.5425 2.84876 14.7131 2.87413C14.8774 2.86145 15.048 2.88682 15.2313 3.00735C15.4714 3.16595 16.0212 3.10885 16.1097 3.4197C16.2424 3.62905 16.4826 3.78765 16.6216 3.99699H16.609Z" fill="white" fill-opacity="0.5"/>
<path d="M25.9396 7.5111C25.9396 7.37154 25.9396 7.28907 25.8827 7.14316C25.8701 7.0036 25.9775 6.85134 25.9269 6.66103C25.8953 6.61028 25.8258 6.55318 25.8321 6.50878C25.9269 6.21696 25.9333 5.95052 25.908 5.63333C25.8827 5.53817 25.8511 5.48742 25.8195 5.43667C25.8258 5.39226 25.8448 5.30979 25.8574 5.22098C25.8637 4.95454 25.7816 4.75788 25.6994 4.51681C25.6741 4.42165 25.6046 4.36456 25.592 4.22499C25.5604 4.17424 25.4909 4.11081 25.4972 4.0664C25.5667 3.67943 25.3834 3.36858 25.3266 3.00063C25.2381 2.58194 24.84 2.3155 24.7199 1.88412C24.7199 1.83971 24.8589 1.85874 24.8968 1.86509C25.2065 2.1569 25.5541 2.49947 25.6362 2.92451C25.6931 3.07042 25.6678 3.20364 25.731 3.30514C25.9964 3.62867 26.0407 4.04737 26.0912 4.45972C26.0849 4.50412 26.1671 4.47875 26.1987 4.5295C26.1924 4.57391 26.1734 4.65638 26.205 4.70713C26.4072 4.92916 26.2808 5.17023 26.3251 5.40495C26.3503 5.50011 26.3756 5.55086 26.4072 5.60161C26.4009 5.64601 26.2998 5.7602 26.2871 5.79827C26.4515 6.01396 26.521 6.29943 26.4767 6.55318C26.6663 6.642 26.5778 6.88941 26.6221 7.07972C26.6537 7.13047 26.6916 7.14316 26.7295 7.1495C26.7864 7.07338 26.8369 6.99725 26.8559 6.90844C26.8812 6.55318 26.8938 6.24868 26.8306 5.9188C26.7738 5.77289 26.7611 5.63333 26.8622 5.52548C26.7864 5.50645 26.7611 5.41129 26.7295 5.36054C26.5905 4.79594 26.5336 4.15521 26.363 3.57792C26.363 3.57792 26.4072 3.5462 26.4199 3.5018C26.363 2.99429 25.9775 2.5185 25.7942 2.00465C25.7689 1.91584 25.6173 1.80165 25.5478 1.70649C25.5478 1.70649 25.5478 1.66209 25.5604 1.61768C25.7563 1.64305 25.908 1.83971 26.0154 1.98562C26.2239 2.27744 26.4578 2.60732 26.521 2.93085C26.6284 3.22267 26.7927 3.52717 26.8559 3.81265C26.9001 4.00296 27.0392 4.12349 27.1276 4.28209C27.1782 4.428 27.1529 4.55487 27.1656 4.69444C27.2224 5.02432 27.3236 5.34151 27.3804 5.66505C27.4626 5.90611 27.4942 6.1789 27.412 6.38824C27.3046 6.76887 27.5511 7.18122 27.6522 7.5111C27.709 7.65701 27.6395 7.82195 27.5763 7.94248C27.57 7.98689 27.6395 8.04398 27.6269 8.08839C27.5574 8.25333 27.6143 8.39924 27.5827 8.57052C27.5384 8.60224 27.6395 8.71643 27.5827 8.79256C27.5384 8.83062 27.5005 8.81793 27.4499 8.856C27.3868 8.97653 27.4436 9.12244 27.4184 9.24931C27.292 9.49038 27.3552 9.81391 27.1213 9.9852C27.0329 10.0106 27.0265 10.055 26.9823 10.0867C27.0202 10.093 27.0518 10.1438 27.0834 10.2009C27.0392 10.2326 26.9949 10.2263 26.9507 10.258C26.9381 10.3405 27.1024 10.4483 27.134 10.499C27.0708 10.8416 26.818 11.1461 26.8243 11.5521C26.8054 11.6346 26.7864 11.7678 26.7674 11.8503C26.6916 12.0533 26.5399 12.2055 26.4641 12.4085C26.4515 12.4974 26.2871 12.5037 26.2682 12.5862C26.1671 12.7004 26.1734 12.878 26.1039 13.0429C26.047 13.1191 25.9333 13.0937 25.8385 13.1635C25.731 13.3157 25.7437 13.4553 25.6741 13.6202C25.5541 13.8169 25.415 14.0326 25.3013 14.2292C25.1686 14.5147 24.9474 14.7875 24.7009 15.0032C24.663 14.9968 24.5745 15.0222 24.5303 15.0539C24.4039 15.295 24.2649 15.4726 23.9995 15.5931C23.9615 15.5868 23.9047 15.7708 23.8541 15.8088C23.6708 15.9484 23.5634 16.1007 23.3422 16.2339C23.2601 16.2593 23.2158 16.291 23.121 16.1387C22.8303 16.6526 22.4448 17.0586 22.0214 17.4138C21.8002 17.5407 21.5791 17.528 21.4337 17.6739C20.9534 18.1497 20.1951 18.6509 20.1066 18.7207C20.0687 18.7143 19.9233 18.93 19.9233 18.93C19.7653 18.9427 19.8601 18.9554 19.7148 18.93C19.7148 18.93 19.7085 19.1711 19.5126 19.2155C19.1018 19.298 18.988 19.7801 18.9628 19.9767C18.9438 20.0782 18.8806 20.0085 18.83 20.0465C18.7858 20.0846 18.8174 20.148 18.7669 20.1861C18.5899 20.2939 18.4319 20.516 18.2866 20.6873C18.2423 20.7253 18.2107 20.6682 18.1602 20.7063C18.1159 20.7443 17.8948 21.0171 17.8189 21.2582C17.6293 21.6769 17.4271 22.0512 17.168 22.3493C17.1048 22.4191 17.3134 22.6982 17.3007 22.7934C17.2438 22.9266 17.1238 22.9457 17.0606 23.0789C17.01 23.4088 16.9911 23.7704 16.9342 24.1193C16.8394 24.4618 16.9531 24.7029 17.0037 25.0011C17.0542 25.2548 16.9911 25.5847 17.0037 25.8321C17.0227 26.0351 17.1554 26.2508 17.1364 26.4411C17.1364 26.7393 17.0732 26.7012 17.1364 26.9486C17.1301 27.0945 17.0795 27.2404 17.1174 27.3419C17.1048 27.5386 17.0732 27.6591 17.0606 27.8558C17.0163 27.9065 16.9342 27.9953 16.9342 28.0461C16.9026 28.5346 16.5866 28.966 16.2517 29.2831C16.0431 29.4164 15.8662 29.6194 15.6323 29.6003C15.5123 29.594 15.1205 29.8477 14.9877 29.8795C14.6402 29.981 14.3558 29.981 14.0209 29.9302C13.648 29.8287 13.3573 29.7336 13.1045 29.3593C12.9528 29.188 12.6937 29.2514 12.5926 28.9913C12.561 28.8898 12.3462 28.8327 12.3146 28.782C12.1187 28.6044 12.0176 28.395 11.8722 28.1793C11.7711 27.9192 11.8469 27.7416 11.7268 27.4878C11.6068 27.3356 11.5499 27.2214 11.4298 27.0691C11.2655 26.8661 11.4677 26.568 11.3477 26.365C11.2655 26.3142 11.1834 26.2064 11.1454 26.1049C11.0633 25.9019 11.0823 25.6101 10.9685 25.4007C10.9053 25.147 10.9432 24.2271 10.9938 23.9797C11.0064 23.9289 10.8611 23.8592 10.8674 23.8084C10.8863 23.4532 11.0127 23.1043 10.9811 22.7363C11.0191 22.5396 11.0001 22.3811 11.177 22.2098C11.177 22.2098 11.0949 22.14 11.1012 22.0892C11.2023 21.8038 11.2023 21.5817 11.2592 21.2836C11.2718 21.2328 11.373 21.2011 11.3793 21.1504C11.3224 20.9283 11.3224 20.4906 11.354 20.2876C11.373 20.1861 11.6321 20.0402 11.6889 19.9514C11.6953 19.9006 11.651 19.7737 11.7458 19.6025C11.7711 19.558 11.8343 19.5707 11.8848 19.5327C11.8912 19.4819 11.8596 19.4248 11.8659 19.3741C11.8912 19.2218 12.1439 19.1203 12.1566 19.0188C12.2577 18.6826 12.422 18.543 12.599 18.2639C12.6621 18.1434 12.6874 18.0165 12.7949 17.9023C12.8391 17.8706 12.8644 17.9023 12.8707 17.8579C12.877 17.8135 12.8581 17.7183 12.8644 17.6739C12.9655 17.5597 13.1045 17.4582 13.1235 17.3314C13.193 17.1664 13.2562 17.0459 13.351 16.938C13.5342 16.7985 13.7175 16.6653 13.8313 16.4623C13.9324 16.3481 14.0461 16.3798 14.1472 16.2656C14.2926 16.1197 14.3305 15.904 14.4379 15.7517C14.6907 15.4536 14.9625 15.2442 15.2405 15.0349C15.468 14.8636 15.7587 14.7938 15.9799 14.667C16.2074 14.4957 16.3465 14.1658 16.5676 14.0389C16.7004 13.9374 16.8647 13.9247 17.0037 13.8232C17.1427 13.7217 17.2565 13.5251 17.4587 13.4807C17.9137 13.3601 17.5914 13.487 18.0148 13.3157C18.2802 13.1508 18.1728 13.1064 18.4382 12.9414C18.8806 12.6813 19.1081 12.5164 19.146 12.5291C19.1903 12.4974 19.2345 12.4593 19.2535 12.3705C19.3609 12.2119 19.9297 11.8186 20.0118 11.7932C20.094 11.7678 20.1951 11.8757 20.2899 11.7678C20.3404 11.6917 20.2393 11.6219 20.2899 11.5458C20.4352 11.3999 20.5743 11.2032 20.7133 11.1017C20.7575 11.07 20.8713 11.1334 20.9534 11.1081C20.9977 11.0763 21.0166 10.9875 21.0609 10.9558C21.1177 10.8797 21.0166 10.7655 21.0672 10.6894C21.1304 10.5688 21.1936 10.4483 21.2757 10.4229C21.4084 10.3595 21.5854 10.2643 21.5664 10.1755C21.598 10.0042 21.6675 9.83929 21.8445 9.74413C21.8508 9.69973 21.8634 9.65532 21.8698 9.61726C21.9709 9.50307 22.0657 9.43963 22.1668 9.32544C22.2742 9.17319 22.23 8.98287 22.2932 8.86234C22.4954 8.64031 22.6913 8.45633 22.7419 8.15817C22.7292 8.01861 22.6408 7.82195 22.7039 7.70142C22.7608 7.62529 22.9315 7.57454 22.9441 7.48573C22.9757 7.31444 22.8872 7.11778 22.8809 6.93381C22.9062 6.80694 23.0452 6.69909 23.0262 6.56587C23.0073 6.20427 23.0326 5.84902 22.982 5.48107C23.1084 5.46204 23.121 5.37957 23.1337 5.29076C23.1021 5.01797 22.9441 4.75788 22.8809 4.4724C22.8746 4.28843 23.0199 4.14253 23.0136 3.9649C22.9946 3.82533 22.8683 3.66674 22.7229 3.5462C22.5902 3.38126 22.6787 3.13386 22.6281 2.94354C22.5902 2.70882 22.4132 2.53753 22.388 2.26475C22.3753 2.12519 22.211 2.13787 22.1541 1.99196C22.1099 1.80165 22.0594 1.61133 22.0594 1.3893C22.0341 1.29414 21.9077 1.31317 21.8382 1.24974C21.6802 0.989638 21.7371 0.469444 21.3958 0.348911C21.4274 0.177627 21.2694 0.139564 21.2125 0C21.4148 0 21.6043 0.0824699 21.7181 0.336223C21.7497 0.386974 21.8634 0.412349 21.9077 0.425037C22.0088 0.539226 22.0025 0.805667 22.1099 0.875449C22.2489 0.995982 22.4575 0.951575 22.5144 1.09748C22.5902 1.33855 22.7735 1.46543 22.8619 1.66209C22.8556 1.70649 22.8746 1.80165 22.9062 1.8524C23.0452 1.97293 23.0642 2.1125 23.1653 2.22034C23.3991 2.49313 23.6329 2.77226 23.5255 3.14654C23.456 3.31148 23.6645 3.26708 23.7277 3.36858C23.8857 3.62867 23.8225 3.97124 24.0247 4.19328C23.9868 4.631 24.1954 5.03701 24.3281 5.42398C24.1006 5.77289 24.227 6.39459 24.4039 6.7435C24.4039 6.7435 24.5303 6.72447 24.5366 6.6864C24.5745 6.47071 24.9664 6.40093 24.9032 6.29309C24.8273 6.05202 24.7073 5.55086 24.7073 5.32882C24.7325 4.97357 24.7452 4.66906 24.6883 4.29478C24.6567 4.24403 24.6251 4.19328 24.5935 4.14253C24.5493 3.95221 24.4987 3.76189 24.5366 3.5462C24.5113 3.45105 24.4418 3.39395 24.4229 3.29879C24.4292 3.25439 24.4482 3.17192 24.4545 3.12751C24.5429 3.10214 24.6504 3.17192 24.7262 3.19095C24.7957 3.24804 24.7325 3.36858 24.7641 3.41933C24.8905 3.62233 25.0738 3.71114 25.118 3.94587C25.1117 3.99027 25.0991 4.07274 25.0864 4.11715C25.118 4.38993 25.2823 4.60563 25.3203 4.84035C25.3392 4.97991 25.2191 5.17657 25.276 5.32248C25.453 5.67139 25.4656 6.07739 25.434 6.47706C25.4024 6.64834 25.6173 6.7879 25.5604 6.90844C25.4972 7.02897 25.5794 7.048 25.5162 7.16854C25.5098 7.21294 25.4214 7.23832 25.415 7.28272C25.5288 7.53013 25.3582 7.91076 25.3139 8.12645C25.3076 8.17086 25.4466 8.21527 25.4782 8.05667C25.4972 7.96151 25.6615 7.96151 25.7437 7.93614C25.8385 7.86636 25.908 7.70142 25.9017 7.52379L25.9396 7.5111ZM26.7801 8.37386C26.7864 8.15183 26.8875 7.99323 26.8496 7.76486C26.7738 7.52379 26.5968 7.76486 26.4704 7.77754C26.5399 8.06302 26.4262 8.25968 26.3377 8.50708C26.2808 8.58321 26.2429 8.7989 26.3693 8.77987C26.5652 8.82428 26.7738 8.63396 26.7801 8.36752V8.37386ZM26.4515 9.54747C26.502 9.47769 26.4767 9.33813 26.4072 9.28103C26.2998 9.21125 26.1544 9.31275 26.0976 9.43328C26.0344 9.55382 26.0786 9.74413 26.2492 9.73144C26.2871 9.73779 26.4009 9.6236 26.4578 9.54113L26.4515 9.54747Z" fill="white" fill-opacity="0.5"/>
<path d="M24.1542 2.21463C24.3628 2.37323 24.4449 2.63967 24.6092 2.84901L24.5903 2.93783C24.3059 3.18524 24.0531 2.77289 23.9709 2.53182C23.8572 2.28441 23.7371 2.03066 23.5223 1.85303C23.5286 1.80863 23.5412 1.76422 23.5475 1.72616C23.4464 1.61197 23.3137 1.45337 23.4464 1.38993C23.497 1.31381 23.5918 1.46606 23.7055 1.53584C23.8698 1.75153 23.9014 2.02432 24.1479 2.21463H24.1542Z" fill="white" fill-opacity="0.5"/>
<path d="M25.3331 1.11006C25.3331 1.15446 25.2636 1.23059 25.2573 1.26865C25.1246 1.14178 24.9856 1.0149 24.8655 0.805554C24.8276 0.792866 24.7517 0.773835 24.7202 0.723084C24.6822 0.710396 24.6886 0.672333 24.7012 0.627926C24.8276 0.615239 24.9224 0.729428 25.0298 0.805554C25.0677 0.818241 25.1183 0.786522 25.1562 0.792866C25.2636 0.862648 25.3205 0.970494 25.3331 1.11006Z" fill="white" fill-opacity="0.5"/>
<path d="M7.71551 9.02109C7.75342 9.0528 7.8103 9.10356 7.83558 9.14162C7.89877 9.18603 7.96197 9.18603 8.03149 9.15431C8.09468 9.15431 8.15156 9.32559 8.22107 9.33193C8.31587 9.37634 8.37274 9.54128 8.46754 9.62375C8.53073 9.66181 8.59393 9.72525 8.65712 9.76331C8.7456 9.8775 8.80247 9.99169 8.89727 10.0742C8.96046 10.1503 9.05526 10.1249 9.12477 10.1249C9.25116 10.1693 9.30172 10.3596 9.39651 10.4738C9.42811 10.4738 9.48499 10.588 9.48499 10.6261C9.54818 10.6641 9.60506 10.7403 9.69985 10.7847C9.73145 10.8227 9.72513 10.8925 9.75041 10.9369C9.98423 11.3176 10.2939 11.5586 10.4961 11.971C10.4961 11.971 10.5214 12.0471 10.5214 12.0788C10.7679 12.3135 10.869 12.6498 11.0838 12.9162C11.1407 13.0304 11.1913 13.2144 11.2481 13.3603C11.3113 13.4364 11.3682 13.4808 11.4314 13.5569C11.5199 13.7092 11.602 13.8932 11.621 14.0771C11.621 14.1469 11.5704 14.3626 11.4441 14.2421C11.2924 14.0835 11.305 13.8741 11.1534 13.7472C11.1534 13.7092 11.1154 13.614 11.0838 13.5823C11.0206 13.5062 10.9132 13.5125 10.8816 13.4047C10.8879 13.2968 10.7679 13.208 10.711 13.1319C10.553 12.9099 10.3318 12.8274 10.1422 12.599C10.1106 12.599 10.0727 12.599 10.0411 12.6307C10.0095 12.7005 9.90208 12.802 9.99687 12.9162C10.1233 12.9923 10.1865 13.1446 10.3445 13.2207C10.4392 13.2968 10.4645 13.5125 10.5214 13.6965C10.5846 13.7726 10.6478 13.8424 10.7426 13.8868C10.8374 13.9629 10.7995 14.0771 10.8879 14.1913C10.8879 14.2294 10.85 14.2611 10.85 14.2928C10.9069 14.407 11.0396 14.3816 11.1281 14.4958C11.1976 14.4324 11.2924 14.4831 11.3493 14.5846C11.2418 14.6861 11.2734 14.7623 11.2292 14.8638C11.1154 15.035 11.3682 15.2 11.5262 15.2825C11.6273 15.2888 11.6147 15.4664 11.7032 15.5489C11.76 15.6631 11.9243 15.6758 12.0128 15.828C12.0381 15.9041 11.9749 15.9359 11.937 15.9993C11.9307 16.1071 12.0571 16.1516 12.1203 16.196C12.1834 16.2404 12.2087 16.3102 12.234 16.3863C12.1329 16.4117 11.9433 16.2784 11.8422 16.2721C11.779 16.2467 11.6652 16.1008 11.5388 16.0754C11.4946 16.0627 11.463 16.1706 11.4188 16.1579C11.3619 16.1452 11.2987 16.1325 11.2292 16.1198C11.1597 16.1071 10.9954 15.9232 10.9259 15.9168C10.8437 15.9041 10.7426 16.0501 10.6667 16.0374C10.3697 15.9866 10.3634 15.9676 10.2686 15.9295C10.1612 15.8851 10.0537 15.8344 9.95896 15.7773C9.89576 15.7392 9.91472 15.6567 9.85152 15.6187C9.79465 15.5806 9.66194 15.5806 9.60506 15.5425C9.37123 15.3966 9.15005 15.0731 8.94782 14.9653C8.81511 14.8955 8.70136 14.8257 8.55601 14.7559C8.48018 14.7115 8.42962 14.61 8.34114 14.5783C8.06308 14.4831 7.8419 14.3118 7.52592 14.223C6.93188 14.0517 6.43263 14.3943 5.94603 14.6481C5.92075 14.6481 5.87019 14.6481 5.84491 14.6608C5.73116 14.7559 5.59845 14.8067 5.49102 14.8828C5.33935 15.0033 5.1308 15.035 4.96649 15.1302C4.91594 15.1619 4.90962 15.2571 4.85906 15.2888C4.77691 15.3332 4.63788 15.3459 4.56204 15.3903C4.49252 15.4347 4.47989 15.5172 4.41037 15.5743C4.27134 15.6885 4.13231 15.7773 3.94904 15.8661C3.84161 15.9232 2.94423 16.0754 2.79888 16.0754C2.57137 16.0754 2.40707 16.2721 2.06581 16.2721C1.54128 16.2721 1.01676 16.2594 0.587028 15.9359C0.492235 15.8534 0.479596 15.6377 0.4164 15.5996C0.226813 15.4728 0.245771 15.2254 0.195215 15.0414C0.132019 15.0033 0.00562759 14.9906 0.0119472 14.8828C0.0814625 14.3499 0.346885 13.8614 0.669183 13.4935C0.745018 13.3539 0.915646 13.2968 0.928285 13.1192C0.928285 13.1192 1.21899 12.7069 1.39593 12.5419C1.43385 12.4721 1.37698 12.3579 1.41489 12.2882C1.68031 11.768 2.16692 11.4127 2.55874 10.9369C2.66617 10.8354 2.742 10.6959 2.90631 10.6768C2.96951 10.6768 3.03902 10.6895 3.07062 10.6197C3.14646 10.4484 3.28549 10.3469 3.39292 10.2835C3.77209 10.0234 4.08807 9.63644 4.52412 9.56031C4.59364 9.52859 4.63156 9.45881 4.69475 9.42709C4.76427 9.36365 4.89066 9.44612 4.96017 9.4144C5.28247 9.2685 5.57317 8.95765 5.90811 8.91324C5.97762 8.88152 6.01554 8.81174 6.04714 8.81808C6.33784 8.84346 6.68542 8.58336 6.96348 8.85615C7.20994 8.8054 7.5828 8.85615 7.74079 8.98937L7.71551 9.02109ZM9.95896 12.174C9.95896 12.1359 9.95896 12.1042 9.95896 12.0661C9.83256 11.99 9.77569 11.768 9.61138 11.7236C9.57978 11.7236 9.51027 11.7553 9.51027 11.7933C9.50395 12.009 9.59242 12.1549 9.68721 12.3389C9.72513 12.1993 9.81993 12.2057 9.88312 12.3135C9.91472 12.2818 9.95264 12.212 9.95264 12.174H9.95896Z" fill="white" fill-opacity="0.5"/>
<path d="M40.1937 16.3736L38.8539 17.7756L35.1317 14.1279C34.6451 14.997 34.0637 15.7392 33.3812 16.3482C32.705 16.9572 32.0288 17.4521 31.3526 17.8327L30.0508 16.3419C30.7839 15.9739 31.4095 15.5426 31.9277 15.0541C32.4459 14.5656 32.8693 14.0454 33.2042 13.5062C33.5329 12.967 33.773 12.4151 33.931 11.8505C34.0827 11.2859 34.1585 10.7339 34.1585 10.1947V7.61912H36.2124V9.82677C36.2124 10.2582 36.1871 10.6705 36.1302 11.0638C36.0733 11.4571 36.0038 11.8378 35.9217 12.2057L40.1937 16.3863V16.3736ZM44.4468 22.7048H42.5003V12.8401H38.4495V10.9623H42.5003V5.95703H44.4468V22.7111V22.7048Z" fill="white" fill-opacity="0.5"/>
<path d="M62.041 15.3839H55.0895V16.3038H58.54V20.6302H51.8854V21.4613H58.9823V23.3391H49.8695V18.8476H56.5051V18.1117H49.7747V16.3101H53.1304V15.3902H46.3242V13.5505H62.041V15.3902V15.3839ZM58.3756 9.45241C58.3756 9.97895 58.2619 10.4611 58.0344 10.8988C57.8069 11.3365 57.5035 11.7108 57.1307 12.0343C56.7389 12.3389 56.2775 12.5799 55.7467 12.7512C55.2159 12.9225 54.6408 13.0113 54.0151 13.0113C53.4274 13.0113 52.8776 12.9288 52.3531 12.7702C51.8349 12.6116 51.3736 12.3769 50.9691 12.0724C50.5773 11.7679 50.2676 11.3936 50.0464 10.9622C49.8189 10.5245 49.7052 10.0297 49.7052 9.47778C49.7052 8.92587 49.8126 8.42471 50.0338 7.98064C50.255 7.53023 50.5583 7.1496 50.9501 6.82606C51.3293 6.50887 51.7843 6.26146 52.3089 6.09018C52.8334 5.91889 53.4021 5.83008 54.0151 5.83008C54.6281 5.83008 55.1779 5.91889 55.7151 6.09018C56.2459 6.26146 56.7073 6.50887 57.0991 6.82606C57.4909 7.13056 57.8006 7.51119 58.0344 7.95526C58.2682 8.40568 58.382 8.90684 58.382 9.45875L58.3756 9.45241ZM56.3597 9.43338C56.3597 8.85609 56.1259 8.40568 55.6645 8.06945C55.1969 7.73957 54.6471 7.57463 54.0151 7.57463C53.3832 7.57463 52.8018 7.73323 52.3531 8.06311C51.9044 8.38664 51.6832 8.8434 51.6832 9.43338C51.6832 10.0234 51.9044 10.442 52.3531 10.7592C52.8018 11.0764 53.3516 11.235 54.0151 11.235C54.6787 11.235 55.2032 11.0891 55.6645 10.791C56.1322 10.4991 56.3597 10.0424 56.3597 9.42703V9.43338Z" fill="white" fill-opacity="0.5"/>
<path d="M78.5533 16.5833H62.8555V14.7245H78.5533V16.5833ZM75.1407 23.3331H73.1817V19.4951H66.1606V17.6173H75.147V23.3331H75.1407ZM75.1091 13.7666H66.2364V6.51562H75.0017V8.37437H68.1829V9.16735H74.7868V11.0451H68.1829V11.9079H75.1154V13.7666H75.1091Z" fill="white" fill-opacity="0.5"/>
<path d="M87.3579 14.5144H79.8945V6.85737H81.8346V9.06503H85.3926V6.85737H87.3516V14.5144H87.3579ZM85.3989 12.6556V10.9238H81.841V12.6556H85.3989ZM92.8813 23.3323H83.8759V18.714H90.4229V17.7561H83.7874V15.8973H92.4452V20.522H85.936V21.4799H92.8876V23.3387L92.8813 23.3323ZM93.0266 15.3645H91.0991V13.5818H87.9457V11.7421H91.0991V10.4163H87.9457V8.55752H91.0991V5.96289H93.0266V15.3708V15.3645Z" fill="white" fill-opacity="0.5"/>
<path d="M104.987 16.4307L103.647 17.8327L99.9436 14.166C99.4634 15.0477 98.8883 15.7963 98.2121 16.4053C97.5296 17.0143 96.8471 17.5092 96.1456 17.8898L94.8438 16.399C95.5895 15.993 96.2214 15.5489 96.7396 15.0541C97.2578 14.5656 97.6812 14.0518 98.0162 13.5252C98.3322 12.986 98.566 12.4404 98.724 11.8885C98.8756 11.3366 98.9515 10.791 98.9515 10.2518V7.61912H101.005V9.88387C101.005 10.3152 100.98 10.7213 100.923 11.1082C100.866 11.4952 100.797 11.8695 100.715 12.2247L104.987 16.4434V16.4307ZM109 22.7048H107.041V5.95703H109V22.7111V22.7048Z" fill="white" fill-opacity="0.5"/>
<path d="M32.9831 29.0166C32.9831 29.3528 32.8693 29.6002 32.6418 29.7588C32.4143 29.9174 32.1047 29.9999 31.7129 29.9999C31.637 29.9999 31.5612 29.9999 31.4854 29.9872C31.4095 29.9745 31.3337 29.9682 31.2642 29.9555C31.1883 29.9428 31.1188 29.9238 31.0493 29.9047C30.9798 29.8857 30.9103 29.8667 30.8534 29.854V29.3592C30.8913 29.3719 30.9356 29.3909 30.9924 29.4163C31.0493 29.4416 31.1125 29.4607 31.1883 29.4797C31.2642 29.4987 31.3526 29.5178 31.4474 29.5368C31.5422 29.5558 31.6497 29.5622 31.7634 29.5622C31.8519 29.5622 31.9341 29.5558 32.0162 29.5368C32.0984 29.5241 32.1679 29.4924 32.2374 29.4543C32.3006 29.4163 32.3511 29.3655 32.3891 29.3021C32.427 29.2386 32.4459 29.1625 32.4459 29.0673C32.4459 28.9722 32.427 28.9024 32.3954 28.839C32.3638 28.7755 32.3132 28.7248 32.2563 28.6804C32.1995 28.636 32.1426 28.5979 32.0731 28.5598C32.0036 28.5281 31.9404 28.4964 31.8772 28.4583C31.7697 28.4076 31.656 28.3568 31.5359 28.2934C31.4158 28.23 31.3021 28.1602 31.1947 28.0841C31.0872 28.0079 31.0051 27.9191 30.9356 27.8176C30.866 27.7161 30.8281 27.5956 30.8281 27.4624C30.8281 27.1642 30.9356 26.9358 31.1378 26.7899C31.3463 26.644 31.6118 26.5742 31.9341 26.5742C32.0099 26.5742 32.0857 26.5742 32.1679 26.5932C32.2437 26.6059 32.3195 26.6186 32.3954 26.6313C32.4649 26.6503 32.5344 26.6694 32.5976 26.6821C32.6608 26.7011 32.724 26.7138 32.7746 26.7265V27.2276C32.6924 27.1832 32.5723 27.1388 32.4207 27.1008C32.269 27.0564 32.092 27.031 31.8961 27.0183C31.7381 27.0183 31.6118 27.0564 31.5106 27.1198C31.4095 27.1896 31.359 27.2911 31.359 27.4243C31.359 27.4877 31.3716 27.5448 31.3969 27.5892C31.4285 27.6336 31.4601 27.678 31.5106 27.7161C31.5549 27.7542 31.6118 27.7859 31.6686 27.8176C31.7318 27.8493 31.7887 27.881 31.8582 27.9128L32.1995 28.0714C32.2753 28.1158 32.3575 28.1665 32.4459 28.2109C32.5344 28.2553 32.6166 28.3124 32.6987 28.3759C32.7746 28.4457 32.8377 28.5281 32.8946 28.6296C32.9515 28.7311 32.9768 28.858 32.9831 29.0103V29.0166Z" fill="white" fill-opacity="0.5"/>
<path d="M35.3971 29.9492H33.457V26.625H35.3529V27.0691H33.9689V27.9889H35.296V28.433H33.9689V29.5051H35.4035V29.9492H35.3971Z" fill="white" fill-opacity="0.5"/>
<path d="M38.7137 28.2802C38.7137 28.5086 38.6821 28.7306 38.6252 28.94C38.5683 29.1493 38.4798 29.3333 38.3598 29.4919C38.2334 29.6505 38.0817 29.771 37.8921 29.8662C37.7025 29.9613 37.475 30.0057 37.2033 30.0057C36.9568 30.0057 36.7356 29.9613 36.546 29.8725C36.3565 29.7837 36.2048 29.6632 36.0784 29.5109C35.952 29.3587 35.8572 29.1747 35.794 28.9654C35.7308 28.756 35.6992 28.5276 35.6992 28.2866C35.6992 28.0582 35.7308 27.8425 35.794 27.6395C35.8572 27.4302 35.952 27.2525 36.0784 27.0939C36.2048 26.9353 36.3628 26.8148 36.546 26.7196C36.7356 26.6245 36.9568 26.5801 37.2033 26.5801C37.4497 26.5801 37.6709 26.6245 37.8605 26.7133C38.0501 26.8021 38.2081 26.9226 38.3345 27.0749C38.4609 27.2271 38.5557 27.4111 38.6189 27.6141C38.6821 27.8235 38.7137 28.0455 38.7137 28.2866V28.2802ZM38.2144 28.2739C38.2144 28.1026 38.1954 27.9377 38.1512 27.7791C38.107 27.6268 38.0501 27.4872 37.9679 27.3731C37.8858 27.2589 37.7784 27.1701 37.652 27.1003C37.5256 27.0305 37.3739 26.9988 37.2033 26.9988C37.0516 26.9988 36.9126 27.0305 36.7862 27.1003C36.6598 27.1637 36.5524 27.2525 36.4702 27.3667C36.3817 27.4809 36.3122 27.6205 36.268 27.7727C36.2237 27.9313 36.1985 28.0963 36.1985 28.2866C36.1985 28.4579 36.2174 28.6228 36.2553 28.7814C36.2933 28.94 36.3565 29.0795 36.4386 29.2001C36.5208 29.3206 36.6282 29.4158 36.7546 29.4919C36.881 29.568 37.0326 29.5997 37.2033 29.5997C37.3739 29.5997 37.5193 29.568 37.6456 29.4982C37.772 29.4348 37.8732 29.3396 37.9616 29.2191C38.0438 29.1049 38.107 28.9654 38.1449 28.8068C38.1828 28.6482 38.2081 28.4705 38.2081 28.2866L38.2144 28.2739Z" fill="white" fill-opacity="0.5"/>
<path d="M41.6151 28.6921C41.6151 28.8253 41.5962 28.9712 41.5583 29.1235C41.5203 29.2757 41.4571 29.4153 41.3624 29.5485C41.2739 29.6754 41.1475 29.7832 40.9895 29.8721C40.8315 29.9545 40.6293 29.9989 40.3891 29.9989C40.149 29.9989 39.9341 29.9545 39.7761 29.8721C39.6181 29.7896 39.4918 29.6817 39.4096 29.5549C39.3211 29.4216 39.2579 29.2821 39.2263 29.1298C39.1947 28.9776 39.1758 28.8317 39.1758 28.6858V26.6113H39.694V28.6731C39.694 28.7809 39.7066 28.8824 39.7193 28.9903C39.7382 29.0918 39.7698 29.1869 39.8267 29.2694C39.8773 29.3519 39.9468 29.4216 40.0416 29.4661C40.13 29.5168 40.2438 29.5422 40.3891 29.5422C40.5345 29.5422 40.6356 29.5168 40.7304 29.4661C40.8189 29.4153 40.8947 29.3519 40.9453 29.2694C41.0021 29.1869 41.0401 29.0918 41.0653 28.9903C41.0906 28.8824 41.0969 28.7809 41.0969 28.6731V26.6113H41.6151V28.6858V28.6921Z" fill="white" fill-opacity="0.5"/>
<path d="M44.3095 29.9428H42.3125V26.625H42.8244V29.4988H44.3095V29.9428Z" fill="white" fill-opacity="0.5"/>
<path d="M49.2809 29.9414H48.8132V27.3531H48.8006L47.9348 29.9414H47.4672L46.6014 27.3531H46.5887V29.9414H46.1211V26.6172H46.8162L47.6947 29.2943H47.7136L48.5857 26.6172H49.2746V29.9414H49.2809Z" fill="white" fill-opacity="0.5"/>
<path d="M51.9401 29.9492H50V26.625H51.8959V27.0691H50.5056V27.9889H51.839V28.433H50.5056V29.5051H51.9401V29.9492Z" fill="white" fill-opacity="0.5"/>
<path d="M54.4305 27.0744H53.5078V29.9609H53.0023V27.0744H52.0859V26.6367H54.4368V27.0744H54.4305Z" fill="white" fill-opacity="0.5"/>
<path d="M57.0349 29.9545H56.5167L56.384 29.3138C56.3398 29.1235 56.2829 28.9585 56.2007 28.8317C56.1186 28.7048 56.0175 28.616 55.8974 28.5652C55.8721 28.5652 55.8405 28.5652 55.8152 28.5652H55.4614V28.1212H55.7268C55.8152 28.1212 55.9037 28.1148 55.9859 28.1021C56.068 28.0894 56.1439 28.0641 56.2071 28.0197C56.2766 27.9816 56.3271 27.9308 56.365 27.8547C56.403 27.7849 56.4219 27.6898 56.4219 27.5756C56.4219 27.4741 56.403 27.3916 56.3524 27.3218C56.3082 27.2521 56.2513 27.2013 56.1755 27.1632C56.1059 27.1252 56.0238 27.0935 55.9353 27.0808C55.8468 27.0617 55.7584 27.0554 55.6699 27.0554H55.2844V29.9418H54.7852V26.6113H55.6699C55.8216 26.6113 55.9796 26.624 56.1249 26.6557C56.2766 26.6811 56.4156 26.7319 56.5357 26.808C56.6557 26.8778 56.7569 26.9793 56.8327 27.0998C56.9085 27.2267 56.9464 27.3853 56.9464 27.5756C56.9464 27.7913 56.9022 27.9689 56.8074 28.1021C56.7126 28.2353 56.5989 28.3369 56.4535 28.4066C56.542 28.4828 56.6242 28.5843 56.7 28.7048C56.7821 28.8253 56.8327 28.9712 56.8706 29.1298L57.0223 29.9418L57.0349 29.9545Z" fill="white" fill-opacity="0.5"/>
<path d="M60.3723 28.2802C60.3723 28.5086 60.347 28.7306 60.2902 28.94C60.227 29.1493 60.1385 29.3333 60.0184 29.4919C59.892 29.6505 59.7404 29.771 59.5508 29.8662C59.3612 29.9613 59.1274 30.0057 58.8619 30.0057C58.6155 30.0057 58.3943 29.9613 58.2047 29.8725C58.0151 29.7837 57.8571 29.6632 57.7307 29.5109C57.6043 29.3587 57.5096 29.1747 57.4464 28.9654C57.3832 28.756 57.3516 28.5276 57.3516 28.2866C57.3516 28.0582 57.3832 27.8425 57.4464 27.6395C57.5096 27.4302 57.6043 27.2525 57.7307 27.0939C57.8571 26.9353 58.0151 26.8148 58.2047 26.7196C58.3943 26.6245 58.6155 26.5801 58.8619 26.5801C59.1084 26.5801 59.3296 26.6245 59.5192 26.7133C59.7088 26.8021 59.8668 26.9226 59.9931 27.0749C60.1195 27.2271 60.2143 27.4111 60.2775 27.6141C60.3407 27.8235 60.3723 28.0455 60.3723 28.2866V28.2802ZM59.8731 28.2739C59.8731 28.1026 59.8541 27.9377 59.8099 27.7791C59.7656 27.6268 59.7024 27.4872 59.6266 27.3731C59.5445 27.2589 59.437 27.1701 59.3106 27.1003C59.1842 27.0305 59.0389 26.9988 58.8619 26.9988C58.704 26.9988 58.5712 27.0305 58.4449 27.1003C58.3185 27.1637 58.2173 27.2525 58.1289 27.3667C58.0404 27.4809 57.9709 27.6205 57.9266 27.7727C57.8824 27.9313 57.8571 28.0963 57.8571 28.2866C57.8571 28.4579 57.8761 28.6228 57.914 28.7814C57.9519 28.94 58.0151 29.0795 58.0973 29.2001C58.1794 29.3206 58.2869 29.4158 58.4069 29.4919C58.5333 29.568 58.685 29.5997 58.8619 29.5997C59.0389 29.5997 59.1779 29.568 59.3043 29.4982C59.4307 29.4348 59.5381 29.3396 59.6203 29.2191C59.7024 29.1049 59.7656 28.9654 59.8036 28.8068C59.8415 28.6482 59.8668 28.4705 59.8668 28.2866L59.8731 28.2739Z" fill="white" fill-opacity="0.5"/>
<path d="M63.0378 27.6083C63.0378 27.805 62.9999 27.9699 62.924 28.0968C62.8482 28.23 62.7534 28.3315 62.6333 28.4076C62.5133 28.4901 62.3869 28.5408 62.2415 28.5726C62.0962 28.6043 61.9508 28.617 61.8118 28.617H61.54V28.1666H61.8055C61.8939 28.1666 61.9761 28.1602 62.0646 28.1412C62.153 28.1285 62.2226 28.0968 62.2921 28.0587C62.3553 28.0143 62.4122 27.9572 62.4501 27.8874C62.4943 27.8176 62.5133 27.7225 62.5133 27.6083C62.5133 27.5068 62.488 27.4243 62.4437 27.3545C62.3995 27.2848 62.3426 27.2277 62.2668 27.1896C62.1973 27.1452 62.1151 27.1135 62.0267 27.0944C61.9382 27.0754 61.8497 27.0691 61.7612 27.0691H61.3821V29.9492H60.8828V26.625H61.7676C61.9192 26.625 62.0709 26.6377 62.2226 26.6694C62.3742 26.7011 62.5069 26.7519 62.627 26.828C62.7534 26.9041 62.8482 27.0056 62.924 27.1325C62.9999 27.2594 63.0378 27.418 63.0378 27.6083Z" fill="white" fill-opacity="0.5"/>
<path d="M66.2683 28.2802C66.2683 28.5086 66.2367 28.7306 66.1799 28.94C66.123 29.1493 66.0345 29.3333 65.9145 29.4919C65.7944 29.6505 65.6364 29.771 65.4468 29.8662C65.2572 29.9613 65.0297 30.0057 64.7643 30.0057C64.5115 30.0057 64.2966 29.9613 64.1071 29.8725C63.9175 29.7837 63.7595 29.6632 63.6331 29.5109C63.5067 29.3587 63.4119 29.1747 63.3487 28.9654C63.2855 28.756 63.2539 28.5276 63.2539 28.2866C63.2539 28.0582 63.2855 27.8425 63.3487 27.6395C63.4119 27.4302 63.5067 27.2525 63.6331 27.0939C63.7595 26.9353 63.9175 26.8148 64.1071 26.7196C64.2966 26.6245 64.5115 26.5801 64.7643 26.5801C65.0171 26.5801 65.2319 26.6245 65.4215 26.7133C65.6111 26.8021 65.7691 26.9226 65.8955 27.0749C66.0219 27.2271 66.1167 27.4111 66.1799 27.6141C66.2431 27.8235 66.2747 28.0455 66.2747 28.2866L66.2683 28.2802ZM65.7691 28.2739C65.7691 28.1026 65.7501 27.9377 65.7059 27.7791C65.668 27.6268 65.6048 27.4872 65.5226 27.3731C65.4405 27.2589 65.333 27.1701 65.2067 27.1003C65.0803 27.0305 64.9349 26.9988 64.7643 26.9988C64.6063 26.9988 64.4736 27.0305 64.3472 27.1003C64.2208 27.1637 64.1197 27.2525 64.0312 27.3667C63.9427 27.4809 63.8732 27.6205 63.829 27.7727C63.7848 27.9313 63.7595 28.0963 63.7595 28.2866C63.7595 28.4579 63.7784 28.6228 63.8164 28.7814C63.8543 28.94 63.9175 29.0795 63.9996 29.2001C64.0818 29.3206 64.1829 29.4158 64.3156 29.4919C64.442 29.568 64.5937 29.5997 64.7706 29.5997C64.9476 29.5997 65.0866 29.568 65.213 29.4982C65.3394 29.4348 65.4468 29.3396 65.529 29.2191C65.6111 29.1049 65.6743 28.9654 65.7122 28.8068C65.7565 28.6482 65.7754 28.4705 65.7754 28.2866L65.7691 28.2739Z" fill="white" fill-opacity="0.5"/>
<path d="M68.7767 29.9428H66.7734V26.625H67.2853V29.4988H68.7767V29.9428Z" fill="white" fill-opacity="0.5"/>
<path d="M69.6159 29.9492H69.0977V26.625H69.6159V29.9492Z" fill="white" fill-opacity="0.5"/>
<path d="M72.3602 27.0744H71.4375V29.9609H70.932V27.0744H70.0156V26.6367H72.3665V27.0744H72.3602Z" fill="white" fill-opacity="0.5"/>
<path d="M75.2297 29.9414H74.6736L74.3387 28.9644H73.1885L72.8283 29.9414H72.3164L73.5045 26.6172H74.0417L75.2361 29.9414H75.2297ZM74.187 28.5203L73.7889 27.2072H73.7699L73.3339 28.5203H74.1933H74.187Z" fill="white" fill-opacity="0.5"/>
<path d="M77.9269 29.9492H77.3329L76.0563 27.3799H76.0374V29.9492H75.5508V26.625H76.1575L77.4277 29.2069H77.4403V26.625H77.9269V29.9492Z" fill="white" fill-opacity="0.5"/>
<path d="M82.5902 27.6395H82.072C82.072 27.5126 82.0531 27.4111 82.0215 27.3286C81.9899 27.2462 81.9393 27.1827 81.8824 27.132C81.8192 27.0812 81.756 27.0432 81.6739 27.0241C81.5981 27.0051 81.5222 26.9924 81.4401 26.9861C81.301 26.9861 81.1683 27.0114 81.0419 27.0685C80.9219 27.1256 80.8144 27.2081 80.726 27.3159C80.6312 27.4238 80.5616 27.557 80.5111 27.7093C80.4605 27.8615 80.4353 28.0391 80.4353 28.2358C80.4353 28.3436 80.4479 28.4769 80.4732 28.6228C80.4984 28.775 80.5553 28.9146 80.6375 29.0605C80.7133 29.2001 80.8271 29.3206 80.9724 29.4158C81.1178 29.5173 81.3074 29.568 81.5538 29.5744C81.6486 29.5744 81.7371 29.568 81.8256 29.5553C81.914 29.5426 81.9962 29.5236 82.072 29.4919V28.6037H81.2821V28.147H82.5839V29.7647L82.4702 29.7837C82.4259 29.8027 82.3754 29.8218 82.3185 29.8471C82.2616 29.8725 82.1921 29.8979 82.1163 29.9169C82.0341 29.9423 81.9456 29.955 81.8382 29.9677C81.7308 29.9804 81.6107 29.9867 81.4717 29.9867C81.1999 29.9867 80.9661 29.936 80.7765 29.8344C80.5806 29.7329 80.4226 29.5934 80.2962 29.4284C80.1698 29.2572 80.0814 29.0668 80.0182 28.8575C79.9613 28.6482 79.9297 28.4325 79.9297 28.2104C79.9297 27.9884 79.9613 27.7854 80.0245 27.5887C80.0877 27.3921 80.1825 27.2144 80.3089 27.0559C80.4353 26.9036 80.5932 26.7831 80.7828 26.6943C80.9724 26.5991 81.1936 26.5547 81.4527 26.5547C81.6044 26.5547 81.7497 26.5801 81.8888 26.6245C82.0278 26.6689 82.1479 26.7387 82.2553 26.8275C82.3564 26.9163 82.4449 27.0305 82.5018 27.1637C82.5649 27.2969 82.5902 27.4555 82.5902 27.6331V27.6395Z" fill="white" fill-opacity="0.5"/>
<path d="M86.0349 28.2729C86.0349 28.5076 86.0096 28.7233 85.9464 28.9327C85.8895 29.142 85.7947 29.326 85.6747 29.4782C85.5546 29.6368 85.3966 29.7637 85.207 29.8525C85.0174 29.9477 84.7899 29.9921 84.5182 29.9921C84.2717 29.9921 84.0505 29.9477 83.8609 29.8589C83.6714 29.77 83.5134 29.6495 83.387 29.4973C83.2606 29.345 83.1658 29.161 83.1026 28.9517C83.0394 28.7423 83.0078 28.514 83.0078 28.2729C83.0078 28.0509 83.0394 27.8352 83.1026 27.6258C83.1658 27.4165 83.2606 27.2389 83.387 27.0803C83.5134 26.9217 83.6714 26.8011 83.8609 26.706C84.0505 26.6172 84.2654 26.5664 84.5182 26.5664C84.771 26.5664 84.9858 26.6108 85.1754 26.6996C85.365 26.7884 85.523 26.909 85.6494 27.0612C85.7758 27.2135 85.8706 27.3974 85.9338 27.6004C85.997 27.8098 86.0286 28.0318 86.0286 28.2729H86.0349ZM85.5356 28.2729C85.5356 28.1016 85.5104 27.9367 85.4724 27.7781C85.4282 27.6195 85.3713 27.4863 85.2892 27.3721C85.207 27.2579 85.0996 27.1627 84.9732 27.0929C84.8468 27.0232 84.6951 26.9914 84.5245 26.9914C84.3728 26.9914 84.2338 27.0232 84.1074 27.0929C83.981 27.1564 83.8799 27.2452 83.7914 27.3594C83.703 27.4736 83.6334 27.6131 83.5892 27.7654C83.545 27.924 83.5197 28.0889 83.5197 28.2792C83.5197 28.4505 83.5387 28.6155 83.5766 28.7741C83.6145 28.9327 83.6714 29.0722 83.7598 29.1864C83.842 29.3069 83.9494 29.4021 84.0758 29.4719C84.2022 29.548 84.3539 29.5797 84.5245 29.5797C84.6951 29.5797 84.8405 29.548 84.9669 29.4846C85.0933 29.4211 85.1944 29.326 85.2829 29.2054C85.365 29.0913 85.4282 28.9517 85.4661 28.7867C85.504 28.6282 85.5293 28.4505 85.5293 28.2666L85.5356 28.2729Z" fill="white" fill-opacity="0.5"/>
<path d="M89.0004 26.6172L87.8439 29.9414H87.2878L86.125 26.6172H86.6685L87.5469 29.307H87.5848L88.4632 26.6172H88.9941H89.0004Z" fill="white" fill-opacity="0.5"/>
<path d="M91.2448 29.9492H89.3047V26.625H91.2006V27.0691H89.8103V27.9889H91.1437V28.433H89.8103V29.5051H91.2448V29.9492Z" fill="white" fill-opacity="0.5"/>
<path d="M93.992 29.9482H93.4674L93.3347 29.3075C93.2905 29.1108 93.2273 28.9522 93.1514 28.8253C93.0693 28.6984 92.9682 28.6096 92.8481 28.5589C92.8228 28.5589 92.7912 28.5589 92.766 28.5589H92.4184V28.1148H92.6838C92.7723 28.1148 92.8608 28.1085 92.9429 28.0958C93.0251 28.0831 93.1009 28.0514 93.1641 28.0133C93.2336 27.9753 93.2842 27.9245 93.3221 27.8547C93.36 27.7849 93.379 27.6898 93.379 27.5756C93.379 27.4741 93.36 27.3916 93.3158 27.3218C93.2715 27.2521 93.2147 27.2013 93.1388 27.1632C93.0693 27.1252 92.9871 27.0935 92.8987 27.0808C92.8102 27.0617 92.7154 27.0554 92.6269 27.0554H92.2414V29.9418H91.7422V26.6113H92.6269C92.7786 26.6113 92.9303 26.624 93.0883 26.6557C93.2399 26.6875 93.3726 26.7319 93.499 26.808C93.6191 26.8778 93.7202 26.9793 93.796 27.0998C93.8719 27.2267 93.9098 27.3853 93.9098 27.5756C93.9098 27.7913 93.8656 27.9689 93.7708 28.1021C93.6823 28.2353 93.5622 28.3369 93.4232 28.4066C93.5054 28.4828 93.5938 28.5843 93.6697 28.7048C93.7518 28.8253 93.8087 28.9712 93.834 29.1362L93.9856 29.9482H93.992Z" fill="white" fill-opacity="0.5"/>
<path d="M96.8879 29.9492H96.2938L95.0173 27.3799H94.9983V29.9492H94.5117V26.625H95.1184L96.3823 29.2069H96.3949V26.625H96.8816V29.9492H96.8879Z" fill="white" fill-opacity="0.5"/>
<path d="M100.75 29.9414H100.276V27.3531H100.263L99.3972 29.9414H98.9296L98.0701 27.3531H98.0575V29.9414H97.5898V26.6172H98.285L99.1634 29.2943H99.1824L100.054 26.6172H100.743V29.9414H100.75Z" fill="white" fill-opacity="0.5"/>
<path d="M103.409 29.9492H101.469V26.625H103.365V27.0691H101.974V27.9889H103.308V28.433H101.974V29.5051H103.409V29.9492Z" fill="white" fill-opacity="0.5"/>
<path d="M106.29 29.9492H105.696L104.42 27.3799H104.401V29.9492H103.914V26.625H104.521L105.785 29.2069H105.797V26.625H106.284V29.9492H106.29Z" fill="white" fill-opacity="0.5"/>
<path d="M108.989 27.0686H108.066V29.955H107.561V27.0686H106.645V26.6309H108.995V27.0686H108.989Z" fill="white" fill-opacity="0.5"/>
</g>
<defs>
<clipPath id="clip0_2058_1543">
<rect width="109" height="30" fill="white"/>
</clipPath>
</defs>
</svg>
